<svg width="48" height="33" viewBox="0 0 48 33" fill="none" xmlns="http://www.w3.org/2000/svg">
<path d="M26.45 3.59381C24.7942 2.59327 22.6961 2.59589 21.0457 3.60167L1.02747 15.8099C0.388338 16.2001 0 16.8837 0 17.6171V17.6224C0 18.3531 0.385639 19.0315 1.01938 19.4244L21.3774 31.9652C23.0764 33.0103 25.2446 33.0129 26.9435 31.9652L46.9806 19.6234C47.6171 19.2332 48 18.5522 48 17.8214C48 17.0854 47.609 16.4018 46.9644 16.0115L26.45 3.59119V3.59381Z" fill="#091D35"/>
<path d="M26.45 1.49845C24.7942 0.497905 22.6961 0.500525 21.0457 1.50631L1.02747 13.7145C0.388338 14.1048 0 14.7884 0 15.5218V15.527C0 16.2578 0.385639 16.9361 1.01938 17.329L21.3774 29.8699C23.0764 30.9149 25.2446 30.9175 26.9435 29.8699L46.9806 17.5281C47.6171 17.1378 48 16.4568 48 15.7261C48 14.9901 47.609 14.3064 46.9644 13.9162L26.45 1.49583V1.49845Z" fill="url(#paint0_linear_4012_3125)"/>
<defs>
<linearGradient id="paint0_linear_4012_3125" x1="-0.00269678" y1="15.7025" x2="47.9973" y2="15.7025" gradientUnits="userSpaceOnUse">
<stop stop-color="#3381FF"/>
<stop offset="1" stop-color="#AE85BB"/>
</linearGradient>
</defs>
</svg>
