<svg width="25" height="25" viewBox="0 0 25 25" fill="none" xmlns="http://www.w3.org/2000/svg">
<path d="M12.5 2.75C10.5222 2.75 8.58879 3.33649 6.9443 4.4353C5.29981 5.53412 4.01809 7.0959 3.26121 8.92317C2.50433 10.7504 2.3063 12.7611 2.69215 14.7009C3.078 16.6407 4.03041 18.4225 5.42894 19.8211C6.82746 21.2196 8.60929 22.172 10.5491 22.5579C12.4889 22.9437 14.4996 22.7457 16.3268 21.9888C18.1541 21.2319 19.7159 19.9502 20.8147 18.3057C21.9135 16.6612 22.5 14.7278 22.5 12.75C21.805 12.964 21.0648 12.9845 20.3591 12.8093C19.6533 12.6341 19.0087 12.2698 18.4945 11.7556C17.9803 11.2413 17.616 10.5967 17.4407 9.89094C17.2655 9.18517 17.286 8.44499 17.5 7.75C16.805 7.964 16.0648 7.98449 15.3591 7.80927C14.6533 7.63405 14.0087 7.26975 13.4945 6.75555C12.9803 6.24135 12.616 5.5967 12.4407 4.89094C12.2655 4.18517 12.286 3.44499 12.5 2.75Z" stroke="white" stroke-width="2" stroke-linecap="round" stroke-linejoin="round"/>
<path d="M9 9.25V9.26" stroke="white" stroke-width="2" stroke-linecap="round" stroke-linejoin="round"/>
<path d="M16.5 16.25V16.26" stroke="white" stroke-width="2" stroke-linecap="round" stroke-linejoin="round"/>
<path d="M12.5 12.75V12.76" stroke="white" stroke-width="2" stroke-linecap="round" stroke-linejoin="round"/>
<path d="M11.5 17.75V17.76" stroke="white" stroke-width="2" stroke-linecap="round" stroke-linejoin="round"/>
<path d="M7.5 14.75V14.76" stroke="white" stroke-width="2" stroke-linecap="round" stroke-linejoin="round"/>
</svg>
