<svg width="48" height="49" viewBox="0 0 48 49" fill="none" xmlns="http://www.w3.org/2000/svg">
<rect x="0.75" y="1.5" width="46.5" height="46.5" rx="23.25" fill="#1B1F24"/>
<rect x="0.75" y="1.5" width="46.5" height="46.5" rx="23.25" stroke="url(#paint0_linear_4012_3152)" stroke-width="1.5"/>
<g clip-path="url(#clip0_4012_3152)">
<path fill-rule="evenodd" clip-rule="evenodd" d="M15.5147 16.2647C17.7652 14.0143 20.8174 12.75 24 12.75C27.1826 12.75 30.2348 14.0143 32.4853 16.2647C34.7357 18.5152 36 21.5674 36 24.75C36 27.9326 34.7357 30.9848 32.4853 33.2353C30.2348 35.4857 27.1826 36.75 24 36.75C22.1543 36.75 20.3525 36.3248 18.7255 35.5287L12.1847 36.5593L13.2397 30.0618C12.4317 28.4251 12 26.6098 12 24.75C12 21.5674 13.2643 18.5152 15.5147 16.2647ZM30.002 18.7481H26L25.1115 22.5269L26.8927 23.9378C26.8677 23.9826 26.8423 24.0276 26.8166 24.0729C26.4145 24.7815 25.911 25.4492 25.3051 26.0551C24.6992 26.661 24.0315 27.1645 23.3229 27.5666C23.2776 27.5923 23.2326 27.6177 23.1878 27.6427L21.7769 25.8615L17.9981 26.75V30.752H18.9981C21.4435 30.752 22.8152 30.1541 24.3099 29.3061C25.1734 28.8161 25.9851 28.2036 26.7193 27.4693C27.4536 26.7351 28.0661 25.9234 28.5561 25.0599C29.4041 23.5652 30.002 22.1935 30.002 19.7481V18.7481Z" fill="white"/>
</g>
<defs>
<linearGradient id="paint0_linear_4012_3152" x1="0" y1="0.75" x2="48" y2="48.75" gradientUnits="userSpaceOnUse">
<stop stop-color="#3381FF"/>
<stop offset="1" stop-color="#9D8AFE"/>
</linearGradient>
<clipPath id="clip0_4012_3152">
<rect width="24" height="24" fill="white" transform="translate(12 12.75)"/>
</clipPath>
</defs>
</svg>
