<svg width="456" height="456" viewBox="0 0 456 456" fill="none" xmlns="http://www.w3.org/2000/svg">
<g clip-path="url(#clip0_4069_838)">
<path d="M447.2 295.774L361.463 242.987L237.398 320.701C232.254 323.927 225.678 323.927 220.534 320.701L92.8405 240.707L7.36833 293.703C-2.43289 299.778 -2.4607 313.875 7.31272 319.992L220.534 453.581C225.678 456.806 232.254 456.806 237.398 453.581L447.311 322.106C457.098 315.975 457.043 301.836 447.214 295.788L447.2 295.774Z" fill="#091D35"/>
<path d="M447.2 284.819L361.463 232.032L237.398 309.746C232.254 312.972 225.678 312.972 220.534 309.746L92.8405 229.752L7.36833 282.748C-2.43289 288.823 -2.4607 302.92 7.31272 309.037L220.534 442.626C225.678 445.851 232.254 445.851 237.398 442.626L447.311 311.15C457.098 305.019 457.043 290.881 447.214 284.833L447.2 284.819Z" fill="url(#paint0_linear_4069_838)"/>
<path d="M218.129 155.374L103.893 226.22L219.895 298.889C224.941 302.044 231.378 302.044 236.411 298.889L350.759 227.263L233.936 155.346C229.098 152.371 222.953 152.371 218.129 155.374Z" fill="#09090A" fill-opacity="0.48"/>
<path d="M8.70298 169.304L94.2308 222.884L217.865 146.212C222.967 143.042 229.446 143.042 234.562 146.184L362.868 225.178L448.715 171.403C458.503 165.272 458.447 151.133 448.618 145.086L234.548 13.3185C229.432 10.1766 222.953 10.1766 217.851 13.3463L8.75858 143.014C-1.04263 149.09 -1.07044 163.187 8.70298 169.304Z" fill="#091D35"/>
<path d="M8.70298 158.349L94.2308 211.929L217.865 135.257C222.967 132.087 229.446 132.087 234.562 135.229L362.868 214.223L448.715 160.448C458.503 154.317 458.447 140.178 448.618 134.131L234.548 2.34951C229.432 -0.792439 222.953 -0.792439 217.851 2.37732L8.75858 132.059C-1.04263 138.135 -1.07044 152.232 8.70298 158.349Z" fill="url(#paint1_linear_4069_838)"/>
<path d="M239.942 126.648C231.434 121.407 220.646 121.42 212.151 126.69L109.19 190.543C105.895 192.587 103.907 196.16 103.907 199.997V200.025C103.907 203.848 105.881 207.407 109.148 209.451L213.847 275.042C222.578 280.52 233.728 280.52 242.472 275.042L345.517 210.493C348.784 208.45 350.759 204.891 350.759 201.068C350.759 197.217 348.743 193.63 345.434 191.6L239.928 126.648H239.942Z" fill="#091D35"/>
<path d="M239.942 115.693C231.434 110.451 220.646 110.465 212.151 115.734L109.19 179.588C105.895 181.632 103.907 185.205 103.907 189.042V189.07C103.907 192.893 105.881 196.452 109.148 198.496L213.847 264.087C222.578 269.565 233.728 269.565 242.472 264.087L345.517 199.538C348.784 197.495 350.759 193.936 350.759 190.112C350.759 186.261 348.743 182.675 345.434 180.645L239.928 115.693H239.942Z" fill="url(#paint2_linear_4069_838)"/>
</g>
<defs>
<linearGradient id="paint0_linear_4069_838" x1="3.33243e-05" y1="337.384" x2="454.61" y2="337.384" gradientUnits="userSpaceOnUse">
<stop stop-color="#1F4D99"/>
<stop offset="1" stop-color="#9D8AFE"/>
</linearGradient>
<linearGradient id="paint1_linear_4069_838" x1="1.39029" y1="107.118" x2="456" y2="107.118" gradientUnits="userSpaceOnUse">
<stop stop-color="#1F4D99"/>
<stop offset="1" stop-color="#9D8AFE"/>
</linearGradient>
<linearGradient id="paint2_linear_4069_838" x1="103.893" y1="189.987" x2="350.759" y2="189.987" gradientUnits="userSpaceOnUse">
<stop stop-color="#1F4D99"/>
<stop offset="1" stop-color="#9D8AFE"/>
</linearGradient>
<clipPath id="clip0_4069_838">
<rect width="456" height="456" fill="white"/>
</clipPath>
</defs>
</svg>
