<svg width="220" height="48" viewBox="0 0 220 48" fill="none" xmlns="http://www.w3.org/2000/svg">
<path d="M23.0314 16.2436L11 23.8956L23.2174 31.7444C23.7489 32.0852 24.4268 32.0852 24.9569 31.7444L37 24.0083L24.6962 16.2406C24.1867 15.9193 23.5395 15.9193 23.0314 16.2436Z" fill="#09090A" fill-opacity="0.24"/>
<path d="M47.0733 31.1343L38.0485 25.5777L24.9891 33.7582C24.4476 34.0977 23.7554 34.0977 23.214 33.7582L9.77261 25.3377L0.775607 30.9162C-0.256092 31.5557 -0.259019 33.0396 0.769754 33.6835L23.214 47.7454C23.7554 48.0849 24.4476 48.0849 24.9891 47.7454L47.085 33.906C48.1152 33.2606 48.1094 31.7723 47.0748 31.1357L47.0733 31.1343Z" fill="#091D35"/>
<path d="M47.0733 29.9811L38.0485 24.4246L24.9891 32.605C24.4476 32.9445 23.7554 32.9445 23.214 32.605L9.77261 24.1846L0.775607 29.7631C-0.256092 30.4026 -0.259019 31.8865 0.769754 32.5304L23.214 46.5922C23.7554 46.9317 24.4476 46.9317 24.9891 46.5922L47.085 32.7528C48.1152 32.1074 48.1094 30.6192 47.0748 29.9826L47.0733 29.9811Z" fill="url(#paint0_linear_4353_105)"/>
<path d="M0.916094 17.8217L9.91895 23.4616L22.933 15.391C23.4701 15.0573 24.152 15.0573 24.6905 15.3881L38.1963 23.7031L47.2328 18.0427C48.263 17.3973 48.2572 15.909 47.2226 15.2724L24.6891 1.40231C24.1505 1.07158 23.4686 1.07158 22.9315 1.40523L0.921948 15.0544C-0.109752 15.6939 -0.112678 17.1778 0.916094 17.8217Z" fill="#091D35"/>
<path d="M0.916094 16.6685L9.91895 22.3085L22.933 14.2378C23.4701 13.9042 24.152 13.9042 24.6905 14.2349L38.1963 22.5499L47.2328 16.8895C48.263 16.2441 48.2572 14.7559 47.2226 14.1193L24.6891 0.247682C24.1505 -0.0830469 23.4686 -0.0830469 22.9315 0.250609L0.921948 13.9012C-0.109752 14.5407 -0.112678 16.0246 0.916094 16.6685Z" fill="url(#paint1_linear_4353_105)"/>
<path d="M25.2569 9.96324C24.3613 9.41154 23.2257 9.413 22.3316 9.96763L11.4936 16.689C11.1468 16.9042 10.9375 17.2803 10.9375 17.6842V17.6871C10.9375 18.0895 11.1453 18.4642 11.4892 18.6793L22.5101 25.5836C23.4291 26.1602 24.6028 26.1602 25.5232 25.5836L36.37 18.789C36.7139 18.5739 36.9217 18.1993 36.9217 17.7968C36.9217 17.3915 36.7095 17.0139 36.3612 16.8003L25.2554 9.96324H25.2569Z" fill="#091D35"/>
<path d="M25.2569 8.81008C24.3613 8.25838 23.2257 8.25984 22.3316 8.81447L11.4936 15.5359C11.1468 15.751 10.9375 16.1271 10.9375 16.531V16.5339C10.9375 16.9364 11.1453 17.311 11.4892 17.5261L22.5101 24.4305C23.4291 25.007 24.6028 25.007 25.5232 24.4305L36.37 17.6359C36.7139 17.4207 36.9217 17.0461 36.9217 16.6437C36.9217 16.2383 36.7095 15.8608 36.3612 15.6471L25.2554 8.81008H25.2569Z" fill="url(#paint2_linear_4353_105)"/>
<path d="M81.2576 13.0147H86.0701V34.9985H81.1664L68.7526 20.2815V34.9985H64.002V13.0147H68.9057L81.2576 27.6716V13.0147ZM134.739 13.0147V14.6338L126.832 24.0081L134.739 33.3516V35H129.805L123.675 27.7933C121.99 29.8391 119.476 32.7092 117.606 35H112.671V33.3824L120.548 24.0081C117.974 20.9239 115.276 17.6872 112.671 14.6338V13.0147H117.606L123.735 20.2507C125.391 18.1741 127.903 15.3348 129.805 13.0147H134.739ZM158.828 13.0147V17.7781H150.185V34.9985H145.403V17.7781H136.76V13.0147H158.828ZM188.496 13.044C191.009 13.044 193.063 15.0899 193.063 17.5625V23.241C193.063 25.7137 191.009 27.7596 188.496 27.7596L175.745 27.7903C175.807 27.7903 175.836 27.8519 175.836 27.9737C175.836 27.9737 175.774 27.9737 175.745 27.9429V34.9956H170.994V13.044H188.496ZM175.745 22.9991H188.25V17.7781H175.745V22.9991ZM215.067 13.0147H220.002V34.9985H215.22V20.2507C212.738 23.1824 210.071 26.4191 207.619 29.2892L199.987 20.2815V34.9985H195.236V13.0147H200.14L207.619 21.9006L215.067 13.0147ZM109.885 30.263H89.6198V34.9443H109.885V30.263ZM109.885 21.6322H89.6198V26.3135H109.885V21.6322ZM109.885 13H89.6198V17.6813H109.885V13Z" fill="url(#paint3_linear_4353_105)"/>
<defs>
<linearGradient id="paint0_linear_4353_105" x1="3.51863e-06" y1="23.9969" x2="48.0011" y2="23.9969" gradientUnits="userSpaceOnUse">
<stop stop-color="#1F4D99"/>
<stop offset="1" stop-color="#9D8AFE"/>
</linearGradient>
<linearGradient id="paint1_linear_4353_105" x1="0.146366" y1="11.2759" x2="47.9997" y2="11.2759" gradientUnits="userSpaceOnUse">
<stop stop-color="#1F4D99"/>
<stop offset="1" stop-color="#9D8AFE"/>
</linearGradient>
<linearGradient id="paint2_linear_4353_105" x1="10.936" y1="16.6305" x2="36.9217" y2="16.6305" gradientUnits="userSpaceOnUse">
<stop stop-color="#3381FF"/>
<stop offset="1" stop-color="#AE85BB"/>
</linearGradient>
<linearGradient id="paint3_linear_4353_105" x1="64.002" y1="23.9993" x2="220.002" y2="23.9993" gradientUnits="userSpaceOnUse">
<stop stop-color="#3381FF"/>
<stop offset="1" stop-color="#9D8AFE"/>
</linearGradient>
</defs>
</svg>
