<svg width="61" height="108" viewBox="0 0 61 108" fill="none" xmlns="http://www.w3.org/2000/svg">
<g clip-path="url(#clip0_3894_920)">
<path d="M15.4638 5.32849C16.0477 3.9836 16.8399 2.82311 17.7245 1.9168C17.8355 1.80325 17.9475 1.69386 18.0605 1.58865C18.1725 1.48239 18.2866 1.38134 18.4037 1.28446C18.636 1.0907 18.8714 0.912562 19.1089 0.752134C19.168 0.711506 19.2271 0.672962 19.2873 0.634418C19.3474 0.596915 19.4076 0.560455 19.4677 0.523994C19.588 0.453156 19.7093 0.385443 19.8296 0.322938C20.0712 0.19793 20.3129 0.0895894 20.5524 0C20.6074 0.254184 20.6488 0.51566 20.6768 0.784428C20.6914 0.918812 20.7017 1.05528 20.71 1.19279C20.7142 1.26154 20.7173 1.33134 20.7194 1.40009C20.7225 1.46989 20.7245 1.54073 20.7266 1.61157C20.7328 1.89492 20.7256 2.18348 20.7048 2.47621C20.6934 2.62205 20.682 2.77102 20.6675 2.91999C20.653 3.06896 20.6343 3.22001 20.6136 3.37106C20.4435 4.58052 20.0847 5.84623 19.5351 7.11298C18.8071 8.79122 17.8458 10.2236 16.7642 11.3185C16.2789 11.8112 15.7511 11.9654 15.3311 11.8206C14.907 11.6747 14.5917 11.2268 14.5316 10.5153C14.4009 8.94019 14.6902 7.11298 15.4649 5.32849H15.4638Z" fill="#FABC40"/>
<path d="M8.40598 13.9707C8.32198 13.7738 8.2328 13.554 8.1457 13.3071C8.06066 13.0613 7.9777 12.7873 7.90303 12.4852C7.75163 11.8789 7.64793 11.157 7.63964 10.2944C7.63964 10.0455 7.64793 9.8017 7.66349 9.56523C7.67904 9.32876 7.69875 9.09645 7.73089 8.87456C7.79311 8.42974 7.87296 8.01304 7.96837 7.63385C8.06584 7.2557 8.17266 6.91297 8.27739 6.61191C8.38317 6.31188 8.49205 6.05562 8.58331 5.84519C8.6082 6.04208 8.64242 6.26396 8.68909 6.50252C8.73471 6.74108 8.79901 6.99943 8.87782 7.26716C8.95663 7.53488 9.05307 7.81407 9.16922 8.09638C9.2864 8.37869 9.42847 8.66725 9.59335 8.95165C9.96771 9.59648 10.2705 9.89546 10.592 10.1986C10.9135 10.5007 11.2474 10.8049 11.6912 11.4351C11.8914 11.7216 12.3424 12.3488 12.6971 13.153C12.7842 13.354 12.8692 13.5665 12.9439 13.7884C13.0175 14.0103 13.0808 14.2416 13.1264 14.4791C13.1492 14.5979 13.1679 14.7187 13.1824 14.8416C13.198 14.9646 13.2083 15.0885 13.2135 15.2146C13.2239 15.4656 13.2125 15.7219 13.1731 15.9823C13.1513 16.1323 13.115 16.4042 13.0196 16.6813C12.9242 16.9584 12.7697 17.2407 12.5218 17.4178C12.1454 17.6824 11.6435 17.7074 11.1499 17.3876C10.6034 17.0324 10.0776 16.5657 9.61513 15.9959C9.38284 15.7104 9.163 15.3979 8.95871 15.0604C8.85604 14.8906 8.7596 14.7156 8.66834 14.5343C8.57709 14.3531 8.48894 14.1645 8.40702 13.9707H8.40598Z" fill="#FABC40"/>
<path d="M19.8804 17.2647C20.0474 17.1657 20.2309 17.0532 20.4259 16.9241C20.6229 16.7959 20.8324 16.6501 21.0481 16.4824C21.4764 16.1459 21.9451 15.7261 22.4066 15.1812C22.5424 15.0239 22.6679 14.8677 22.7851 14.7114C22.9023 14.5552 23.007 14.3999 23.1097 14.2478C23.3129 13.9447 23.4788 13.6468 23.623 13.3686C23.7682 13.0905 23.8853 12.83 23.9787 12.5936C24.0741 12.3581 24.1508 12.1498 24.2068 11.9758C24.0678 12.0706 23.9082 12.1748 23.7267 12.2831C23.5442 12.3904 23.3482 12.505 23.1273 12.6165C22.9074 12.7279 22.6679 12.8384 22.4086 12.9425C22.1494 13.0457 21.8746 13.1446 21.579 13.229C20.9102 13.4228 20.4891 13.4467 20.0609 13.4665C19.6315 13.4863 19.1908 13.5009 18.4701 13.6968C18.1383 13.7853 17.4269 13.9864 16.6833 14.4072C16.4967 14.5124 16.3111 14.6322 16.1306 14.7666C15.9491 14.902 15.7729 15.0521 15.6049 15.2187C15.5219 15.3021 15.4389 15.3896 15.3622 15.4813C15.2855 15.574 15.2129 15.6698 15.1434 15.7709C15.0044 15.973 14.8821 16.1917 14.7804 16.4292C14.7224 16.5657 14.6218 16.8147 14.5679 17.0959C14.5139 17.3783 14.5067 17.6929 14.6477 17.9627C14.8572 18.3689 15.2906 18.6158 15.8734 18.5794C16.5216 18.5388 17.1873 18.4044 17.8655 18.1846C18.2036 18.0741 18.5417 17.9418 18.8766 17.7887C19.0436 17.7116 19.2126 17.6293 19.3806 17.5429C19.5486 17.4553 19.7155 17.3626 19.8804 17.2647Z" fill="#FABC40"/>
<path d="M6.19716 21.8108C6.08827 21.615 5.9711 21.3942 5.85288 21.1462C5.79377 21.0223 5.73362 20.891 5.67555 20.7524C5.61852 20.6139 5.56148 20.468 5.50652 20.3139C5.3966 20.0055 5.29186 19.6659 5.20164 19.2909C5.11557 18.9159 5.04401 18.5065 4.9932 18.0575C4.9372 17.5376 4.9258 17.0387 4.9372 16.5667C4.95483 16.0959 4.99942 15.6542 5.05749 15.2489C5.18297 14.4395 5.36445 13.777 5.51896 13.3228C5.56666 13.5259 5.62474 13.7541 5.70044 13.9978C5.77718 14.2437 5.87051 14.5051 5.98147 14.777C6.09346 15.0489 6.22205 15.3302 6.3776 15.6136C6.53419 15.898 6.71255 16.1834 6.91684 16.4647C7.14809 16.7824 7.35239 17.0116 7.54527 17.197C7.73919 17.3824 7.9217 17.5251 8.10629 17.6668C8.47753 17.9502 8.8633 18.2335 9.39943 18.845C9.64624 19.1242 10.1876 19.7315 10.648 20.5316C10.8823 20.9327 11.097 21.3827 11.2443 21.8671C11.321 22.1098 11.3811 22.3619 11.4185 22.6224C11.4558 22.8818 11.4683 23.1495 11.46 23.4245C11.4537 23.5828 11.4434 23.8683 11.3708 24.1652C11.3531 24.2391 11.3303 24.3141 11.3044 24.3881C11.2795 24.4621 11.2494 24.535 11.2131 24.6058C11.1416 24.7465 11.0483 24.8756 10.9249 24.9798C10.5536 25.2923 10.0247 25.3694 9.46891 25.0871C8.85189 24.7735 8.25147 24.3433 7.69356 23.7954C7.41772 23.5224 7.15224 23.2203 6.90129 22.889C6.65033 22.5578 6.41182 22.1973 6.1982 21.8098L6.19716 21.8108Z" fill="#FABC40"/>
<path d="M18.6899 24.087C18.8569 23.9683 19.0394 23.8349 19.2313 23.6818C19.3277 23.6058 19.4262 23.5245 19.5268 23.438C19.6295 23.3526 19.7332 23.2609 19.8389 23.1641C20.0495 22.9703 20.2652 22.7526 20.4809 22.5078C20.7007 22.264 20.9195 21.9932 21.1342 21.689C21.3851 21.3379 21.5987 20.9931 21.774 20.6587C21.9555 20.3253 22.1027 20.0045 22.2209 19.7034C22.4678 19.1034 22.5995 18.5794 22.6855 18.2106C22.5497 18.321 22.391 18.444 22.2116 18.5721C22.0343 18.7013 21.8362 18.8367 21.6164 18.9732C21.3965 19.1096 21.1528 19.245 20.8925 19.3773C20.6323 19.5097 20.3502 19.6367 20.0474 19.7524C19.7041 19.8836 19.421 19.9659 19.169 20.0232C18.9181 20.0805 18.6962 20.1118 18.4701 20.143C18.019 20.2045 17.5534 20.2607 16.8119 20.5337C16.4749 20.6587 15.7417 20.9347 15.0003 21.4442C14.6342 21.6994 14.2671 22.0129 13.9477 22.3911C13.7911 22.5807 13.647 22.787 13.5215 23.0099C13.396 23.2328 13.2861 23.4714 13.2094 23.7287C13.1638 23.8766 13.0829 24.1433 13.0549 24.4412C13.0476 24.5152 13.0445 24.5912 13.0455 24.6683C13.0476 24.7454 13.0549 24.8225 13.0683 24.8986C13.0953 25.0506 13.1472 25.1996 13.2343 25.3319C13.4977 25.7319 13.983 25.9434 14.5959 25.8465C15.2761 25.7392 15.973 25.534 16.6595 25.2382C17.0059 25.0902 17.3501 24.9204 17.6892 24.7288C17.8583 24.6329 18.0263 24.5308 18.1932 24.4246C18.3591 24.3173 18.5282 24.2058 18.692 24.0881L18.6899 24.087Z" fill="#FABC40"/>
<path d="M4.70906 30.1968C4.43426 29.8114 4.12004 29.3291 3.81413 28.7113C3.66273 28.4019 3.51962 28.0592 3.38481 27.6779C3.31844 27.4873 3.25104 27.2862 3.19296 27.0768C3.13489 26.8664 3.07993 26.6455 3.03015 26.4153C2.97312 26.1476 2.92231 25.884 2.88808 25.6257C2.85283 25.3673 2.82794 25.1142 2.80927 24.8683C2.76986 24.3756 2.77505 23.911 2.79372 23.4828C2.80409 23.2682 2.81653 23.063 2.83727 22.8693C2.85801 22.6744 2.88186 22.4911 2.90675 22.3182C2.9586 21.9734 3.01253 21.6723 3.0706 21.4275C3.14111 21.6348 3.2303 21.8661 3.33711 22.114C3.44392 22.3619 3.56939 22.6255 3.71561 22.8974C3.86079 23.1693 4.03293 23.4495 4.22789 23.7287C4.42285 24.0089 4.64165 24.2881 4.88742 24.559C5.44741 25.1725 5.85703 25.4309 6.27805 25.6882C6.4896 25.8163 6.70426 25.9445 6.94588 26.1132C7.18647 26.282 7.45609 26.4914 7.77548 26.782C7.9217 26.9143 8.15295 27.1247 8.41946 27.3998C8.55324 27.5373 8.69427 27.6904 8.83945 27.8592C8.98566 28.0279 9.13499 28.2102 9.28017 28.4061C9.5695 28.7978 9.8412 29.2426 10.0569 29.7301C10.1637 29.9739 10.2529 30.2291 10.3182 30.4948C10.3877 30.7604 10.4354 31.0365 10.452 31.3219C10.4665 31.6511 10.535 32.5084 10.0538 32.9918C9.69705 33.3554 9.14848 33.4918 8.52731 33.2585C7.83667 32.9981 7.15743 32.6157 6.51034 32.1053C6.34856 31.9782 6.18887 31.8428 6.03124 31.699C5.95243 31.6271 5.87465 31.5542 5.79688 31.4782C5.72014 31.4032 5.64444 31.325 5.56977 31.2459C5.27008 30.9281 4.98179 30.5791 4.70906 30.1979V30.1968Z" fill="#FABC40"/>
<path d="M18.1746 31.2532C18.4991 30.9729 18.8911 30.6271 19.2883 30.1833C19.4895 29.9614 19.6969 29.7155 19.8981 29.4416C19.9997 29.3041 20.0982 29.1603 20.1998 29.0082C20.3015 28.8572 20.401 28.6978 20.4985 28.5311C20.6126 28.3373 20.7111 28.1457 20.8065 27.9581C20.9019 27.7706 20.9869 27.5852 21.0626 27.405C21.2119 27.0425 21.3374 26.6976 21.4307 26.3757C21.4785 26.2143 21.5158 26.0591 21.5542 25.9111C21.5915 25.7632 21.6216 25.6215 21.6475 25.4882C21.7004 25.2215 21.7294 24.985 21.7553 24.7913C21.6216 24.9184 21.4702 25.06 21.297 25.2111C21.1228 25.3621 20.9268 25.5205 20.708 25.6819C20.4871 25.8434 20.2517 26.009 19.9893 26.1705C19.728 26.333 19.4428 26.4914 19.1327 26.6414C18.4359 26.982 17.9817 27.0945 17.5098 27.2029C17.2744 27.257 17.0339 27.3112 16.759 27.3956C16.4832 27.48 16.1742 27.5956 15.7998 27.7748C15.6287 27.8571 15.356 27.9873 15.0345 28.1738C14.8738 28.2665 14.7006 28.3727 14.5222 28.4946C14.3459 28.6155 14.1645 28.7519 13.983 28.903C13.6221 29.2051 13.2623 29.5666 12.9729 29.9927C12.8267 30.2052 12.695 30.4333 12.5851 30.6771C12.4783 30.9208 12.3933 31.1802 12.3362 31.4542C12.2657 31.7678 12.1112 32.5991 12.5353 33.1127C12.8609 33.4991 13.3992 33.6669 14.0348 33.5023C14.739 33.3189 15.4566 33.0335 16.1534 32.6564C16.3277 32.5616 16.5008 32.4616 16.6719 32.3564C16.758 32.3032 16.843 32.2491 16.927 32.1938C17.0131 32.1386 17.0981 32.0813 17.1832 32.023C17.5223 31.7896 17.8541 31.5334 18.1735 31.2573L18.1746 31.2532Z" fill="#FABC40"/>
<path d="M4.05264 39.0776C3.88672 38.8922 3.70213 38.6828 3.51651 38.4432C3.33089 38.2036 3.138 37.9349 2.94408 37.6296C2.84764 37.4775 2.75016 37.3161 2.65476 37.1442C2.55832 36.9733 2.46291 36.7921 2.37373 36.6014C2.19329 36.2191 2.01597 35.7951 1.85938 35.3253C1.7702 35.0534 1.69346 34.7836 1.62605 34.518C1.55969 34.2534 1.50161 33.9929 1.45806 33.7377C1.41347 33.4835 1.37821 33.2345 1.35021 32.9939C1.33569 32.8731 1.32428 32.7553 1.31288 32.6387C1.30251 32.522 1.29629 32.4084 1.29007 32.2959C1.26725 31.848 1.26621 31.4355 1.28281 31.0698C1.30147 30.7042 1.33154 30.3864 1.36161 30.125C1.75671 30.9583 2.45877 32.1699 3.62539 33.1939C4.28597 33.7731 4.74121 33.9971 5.2172 34.22C5.69422 34.4409 6.1868 34.6607 6.92203 35.1951C7.25491 35.4389 7.9974 35.9681 8.69012 36.7181C9.03856 37.0931 9.38388 37.5244 9.65868 38.0078C9.72713 38.1286 9.79246 38.2526 9.85156 38.3797C9.91171 38.5068 9.96978 38.638 10.0206 38.7714C10.1233 39.0391 10.2021 39.3204 10.2508 39.6152C10.2643 39.6996 10.284 39.8183 10.2985 39.9579C10.3141 40.0975 10.3275 40.2558 10.3224 40.4225C10.3141 40.7548 10.2404 41.1122 10.0123 41.3903C9.83912 41.5997 9.6172 41.7539 9.34758 41.8351C9.079 41.9164 8.76686 41.9237 8.42465 41.8362C8.23487 41.7882 8.04407 41.732 7.85533 41.6674C7.6666 41.6028 7.47786 41.5299 7.28913 41.4486C6.91166 41.2861 6.53626 41.0913 6.16605 40.8621C5.79688 40.633 5.42771 40.3704 5.07513 40.0725C4.72358 39.7746 4.38137 39.4433 4.05264 39.0766V39.0776Z" fill="#FABC40"/>
<path d="M18.4162 38.7026C18.5738 38.5401 18.7408 38.3599 18.9212 38.1567C19.1027 37.9536 19.2904 37.7286 19.4781 37.4786C19.5724 37.3536 19.6658 37.2223 19.7591 37.0838C19.8514 36.9452 19.9437 36.8004 20.0391 36.6483C20.2268 36.3441 20.4051 36.0108 20.5742 35.6462C20.6748 35.4347 20.7629 35.2263 20.8407 35.0232C20.9185 34.819 20.9848 34.62 21.0491 34.4252C21.1114 34.2304 21.1642 34.0419 21.2088 33.8585C21.2316 33.7669 21.2513 33.6762 21.27 33.5877C21.2887 33.4991 21.3084 33.4116 21.325 33.3262C21.3924 32.9845 21.4297 32.6699 21.4556 32.3886C21.4836 32.1084 21.494 31.8626 21.4961 31.6594C20.9942 32.2386 20.1594 33.0908 18.9243 33.8408C18.2254 34.2659 17.7504 34.4305 17.2651 34.5919C16.7798 34.7555 16.2779 34.9149 15.5188 35.3649C15.1693 35.5701 14.4237 36.0222 13.7186 36.7254C13.368 37.0765 13.0372 37.49 12.7707 37.9619C12.7044 38.0797 12.6421 38.2015 12.5851 38.3265C12.5291 38.4516 12.4804 38.5807 12.4368 38.713C12.3497 38.9776 12.2875 39.2547 12.2564 39.5454C12.247 39.6287 12.2346 39.7454 12.2284 39.8829C12.2242 40.0194 12.2284 40.1756 12.2481 40.3361C12.2885 40.658 12.3964 40.9986 12.6494 41.2403C12.8381 41.4216 13.0849 41.5413 13.3618 41.5851C13.6387 41.6289 13.9498 41.5966 14.2775 41.4768C14.459 41.4101 14.6404 41.3361 14.8209 41.257C15.0024 41.1767 15.1838 41.0903 15.3643 40.9976C15.7241 40.8121 16.0798 40.6017 16.4282 40.3694C16.7767 40.136 17.1137 39.8798 17.4476 39.6016C17.7815 39.3235 18.1061 39.0235 18.4151 38.7037L18.4162 38.7026Z" fill="#FABC40"/>
<path d="M4.33885 48.4054C3.94894 48.0574 3.48333 47.6147 3.00112 47.023C2.76468 46.7261 2.5241 46.3927 2.28662 46.0146C2.16841 45.825 2.04811 45.625 1.93404 45.4135C1.82101 45.201 1.71005 44.977 1.60117 44.7405C1.47569 44.4665 1.36265 44.1936 1.26103 43.9248C1.16044 43.6561 1.07748 43.3894 1.00074 43.129C0.850371 42.6081 0.734227 42.1081 0.663711 41.6434C0.590083 41.1788 0.545496 40.7486 0.518534 40.3652C0.498831 39.9829 0.496753 39.6475 0.501938 39.3714C1.00696 40.1965 1.88945 41.383 3.23237 42.3195C3.99561 42.8498 4.50477 43.031 5.03157 43.2102C5.29497 43.2988 5.56044 43.3863 5.86843 43.5102C6.17642 43.6342 6.52278 43.7967 6.94277 44.0332C7.13461 44.1415 7.43949 44.3113 7.7983 44.5426C7.9777 44.6582 8.16851 44.7895 8.36968 44.9343C8.57086 45.0791 8.77826 45.2395 8.98359 45.4145C9.18892 45.5895 9.39425 45.7791 9.5892 45.9833C9.68772 46.0854 9.78209 46.1917 9.87542 46.301C9.96978 46.4104 10.061 46.524 10.1492 46.6407C10.3244 46.875 10.4831 47.1251 10.6189 47.3907C10.6874 47.524 10.7465 47.6616 10.8056 47.8022C10.8637 47.9428 10.9145 48.0887 10.958 48.2387C11.0078 48.4106 11.098 48.722 11.1229 49.0669C11.1333 49.2398 11.1364 49.42 11.1043 49.5981C11.0732 49.7752 11.013 49.9492 10.9093 50.1065C10.5972 50.5795 10.0196 50.8586 9.28121 50.7597C8.46094 50.6493 7.61682 50.4055 6.77789 50.0169C6.35894 49.8232 5.94828 49.5909 5.5397 49.3231C5.33541 49.1887 5.13319 49.046 4.93305 48.8929C4.73291 48.7397 4.53174 48.5783 4.34093 48.4054H4.33885Z" fill="#FABC40"/>
<path d="M19.4853 46.3365C19.785 45.9666 20.1324 45.5135 20.4726 44.9572C20.6468 44.6791 20.8179 44.3738 20.9797 44.0415C21.0605 43.8748 21.1373 43.7019 21.214 43.5206C21.2918 43.3394 21.3665 43.1508 21.437 42.9539C21.5179 42.7258 21.5873 42.5029 21.6464 42.2862C21.7066 42.0685 21.7616 41.856 21.8051 41.6497C21.8933 41.2372 21.9399 40.8496 21.9772 40.4913C22.0104 40.1329 22.0187 39.8058 22.0115 39.5152C22.0115 39.2245 21.9959 38.9703 21.9772 38.762C21.8601 38.9245 21.7232 39.1068 21.5624 39.3027C21.4826 39.4006 21.3945 39.5027 21.3053 39.6068C21.2161 39.711 21.1196 39.8183 21.018 39.9267C20.8148 40.1444 20.5866 40.3715 20.3315 40.5996C20.204 40.7142 20.0702 40.8288 19.9292 40.9434C19.7892 41.058 19.645 41.1726 19.4916 41.2851C18.7999 41.7997 18.3177 42.0216 17.8199 42.2424C17.571 42.3529 17.3159 42.4654 17.0318 42.6164C16.7487 42.7685 16.4324 42.9602 16.058 43.2342C15.8869 43.3602 15.6142 43.5602 15.3 43.83C15.1434 43.9655 14.9744 44.1176 14.8064 44.2863C14.6394 44.4551 14.4693 44.6405 14.3045 44.8416C14.1396 45.0426 13.9788 45.2603 13.8305 45.4916C13.7569 45.6072 13.6843 45.727 13.619 45.85C13.5537 45.9729 13.4935 46.0989 13.4375 46.2292C13.3255 46.4886 13.2332 46.7605 13.1679 47.0448C13.1358 47.1865 13.1078 47.3313 13.0932 47.4782C13.0777 47.6251 13.0704 47.7741 13.0715 47.9262C13.0725 48.1001 13.0746 48.4158 13.1503 48.745C13.1866 48.9096 13.2488 49.0752 13.3338 49.2294C13.4199 49.3825 13.5329 49.5221 13.6812 49.6315C14.1282 49.9617 14.7597 50.0086 15.4275 49.6804C16.168 49.3169 16.8928 48.8439 17.5721 48.2814C17.9122 48.0001 18.2492 47.6949 18.5686 47.3699C18.7283 47.2074 18.8849 47.0396 19.0373 46.8667C19.1898 46.6938 19.337 46.5167 19.4864 46.3344L19.4853 46.3365Z" fill="#FABC40"/>
<path d="M5.72844 58.0966C4.82002 57.4695 3.54244 56.484 2.40277 54.6079C2.06574 54.0662 1.80442 53.5213 1.57939 52.9963C1.35228 52.4713 1.18844 51.9598 1.05259 51.4826C0.985182 51.2441 0.926072 51.0139 0.876296 50.793C0.828594 50.5722 0.78919 50.3617 0.756006 50.1628C0.688601 49.7648 0.646081 49.4148 0.617045 49.1262C0.937479 49.5273 1.36161 50.0128 1.89463 50.5003C2.02633 50.6222 2.16944 50.7441 2.31877 50.8639C2.4681 50.9847 2.62365 51.1035 2.78646 51.2201C3.11208 51.4535 3.46466 51.6785 3.84524 51.8827C4.0599 51.9983 4.259 52.0931 4.44255 52.1712C4.62714 52.2494 4.79617 52.3129 4.95691 52.365C5.27838 52.4702 5.56252 52.5327 5.85184 52.5931C6.14013 52.6536 6.4336 52.7119 6.77166 52.8046C7.10973 52.8973 7.49031 53.0244 7.96422 53.2182C8.17992 53.3067 8.52316 53.4474 8.92967 53.6432C9.13292 53.7411 9.35173 53.8536 9.57883 53.9797C9.8049 54.1068 10.0424 54.2474 10.2819 54.4037C10.5204 54.5599 10.7589 54.7308 10.9902 54.9193C11.2225 55.1068 11.4413 55.3121 11.657 55.5329C11.8696 55.7538 12.0676 55.9934 12.2419 56.2517C12.329 56.3809 12.4109 56.5153 12.4856 56.6549C12.5633 56.7934 12.6349 56.9382 12.6981 57.0872C12.7718 57.2591 12.9035 57.5695 12.9698 57.9247C13.002 58.1029 13.0258 58.2894 13.0134 58.4779C13.002 58.6654 12.9584 58.854 12.8682 59.03C12.5944 59.5613 12.0189 59.9249 11.2266 59.9176C10.3473 59.9093 9.42743 59.7634 8.49516 59.4665C8.02955 59.3176 7.56808 59.129 7.10454 58.9009C6.87329 58.7873 6.64204 58.6633 6.41182 58.529C6.29671 58.4623 6.18161 58.3925 6.06754 58.3206C5.9545 58.2477 5.84147 58.1727 5.72948 58.0956L5.72844 58.0966Z" fill="#FABC40"/>
<path d="M21.4805 54.0391C22.026 53.2026 22.7374 52.0066 23.1553 50.3274C23.2694 49.8429 23.3554 49.3794 23.3979 48.9491C23.4374 48.5189 23.4602 48.1137 23.4508 47.7449C23.4477 47.5605 23.4374 47.3845 23.4239 47.2167C23.4135 47.049 23.399 46.8907 23.3814 46.7427C23.3461 46.4459 23.2994 46.1896 23.2548 45.9781C23.0464 46.3375 22.7602 46.7865 22.3723 47.2824C22.2749 47.4063 22.1743 47.5324 22.0664 47.6616C21.9586 47.7897 21.8456 47.9209 21.7242 48.0532C21.4826 48.3179 21.2119 48.5877 20.9112 48.8575C20.7401 49.0106 20.5846 49.1429 20.4373 49.2606C20.29 49.3783 20.1511 49.4804 20.0173 49.5721C19.7508 49.7565 19.504 49.8992 19.2541 50.043C19.0042 50.1867 18.7491 50.3326 18.4639 50.5232C18.1797 50.7138 17.8635 50.9514 17.5015 51.2795C17.3356 51.4295 17.0712 51.6702 16.7715 51.9869C16.6222 52.1452 16.4625 52.3233 16.3028 52.5181C16.142 52.714 15.9844 52.9265 15.834 53.1546C15.6837 53.3828 15.5395 53.6265 15.4099 53.8849C15.2824 54.1422 15.1631 54.4151 15.0781 54.6964C14.991 54.9787 14.9256 55.2714 14.8904 55.5725C14.8727 55.7236 14.8624 55.8756 14.8613 56.0309C14.8624 56.185 14.8717 56.3403 14.8914 56.4965C14.9132 56.6768 14.9526 57.0028 15.0708 57.333C15.1278 57.4987 15.2129 57.6622 15.3207 57.8102C15.4296 57.957 15.5655 58.0873 15.7345 58.181C16.2447 58.4644 16.9167 58.431 17.5824 58.005C18.3218 57.5331 19.0301 56.9507 19.6824 56.284C20.009 55.9507 20.3295 55.5933 20.6281 55.2183C20.7785 55.0308 20.9237 54.8381 21.0647 54.6412C21.1352 54.5433 21.2047 54.4433 21.2731 54.3422C21.3426 54.2412 21.411 54.1391 21.4785 54.0359L21.4805 54.0391Z" fill="#FABC40"/>
<path d="M8.3728 68.0233C8.1094 67.8921 7.82837 67.7358 7.52245 67.5525C7.21758 67.3681 6.89196 67.1545 6.55182 66.9014C6.21376 66.6472 5.86739 66.3524 5.50963 66.0086C5.3323 65.8367 5.14875 65.6534 4.97039 65.4555C4.79202 65.2565 4.61366 65.045 4.43322 64.819C4.22686 64.5564 4.02983 64.2939 3.85353 64.0293C3.67828 63.7647 3.51651 63.5012 3.36614 63.2397C3.29148 63.1095 3.21992 62.9793 3.15044 62.8511C3.11622 62.7865 3.08304 62.7219 3.04986 62.6594C3.01771 62.5959 2.9866 62.5313 2.95652 62.4678C2.83519 62.2136 2.72528 61.9656 2.62469 61.724C2.52514 61.4833 2.43491 61.25 2.35506 61.025C2.27833 60.7999 2.21092 60.5843 2.15078 60.3812C2.03256 59.9738 1.94233 59.6134 1.88011 59.3144C2.26381 59.6947 2.77298 60.1478 3.3931 60.5905C3.54762 60.701 3.7125 60.8104 3.88464 60.9166C4.05679 61.0239 4.23515 61.1281 4.42181 61.2302C4.79409 61.4333 5.19335 61.6219 5.61955 61.7865C6.59226 62.1563 7.20098 62.2167 7.82422 62.2698C8.44954 62.3198 9.08522 62.3646 10.1305 62.6459C10.369 62.7105 10.7475 62.8115 11.1986 62.9615C11.4247 63.0365 11.6674 63.1251 11.9235 63.2261C12.1807 63.3272 12.4482 63.4418 12.7178 63.572C12.9875 63.7022 13.2592 63.8491 13.5246 64.0137C13.591 64.0543 13.6563 64.097 13.7227 64.1408C13.7891 64.1835 13.8554 64.2283 13.9208 64.2731C14.0514 64.3637 14.18 64.4596 14.3055 64.5596C14.5554 64.7606 14.7919 64.9825 15.0055 65.2284C15.2253 65.4721 15.4234 65.7378 15.5914 66.0315C15.7801 66.3732 16.3069 67.24 16.0062 68.0244C15.7884 68.6109 15.2295 69.0682 14.3916 69.1713C13.928 69.2276 13.4448 69.2515 12.9564 69.2359C12.4679 69.2203 11.9671 69.1682 11.4589 69.0755C11.2049 69.0297 10.9487 68.9734 10.6915 68.9078C10.5629 68.8744 10.4333 68.839 10.3037 68.8015C10.1751 68.763 10.0476 68.7213 9.91793 68.6776C9.40358 68.5015 8.88611 68.2838 8.36865 68.0223L8.3728 68.0233Z" fill="#FABC40"/>
<path d="M24.4785 61.6802C24.5926 61.4489 24.7253 61.1885 24.8529 60.9052C24.9814 60.6218 25.11 60.3124 25.2293 59.979C25.3506 59.6447 25.4688 59.2811 25.5663 58.8946C25.6161 58.7008 25.6576 58.5008 25.7001 58.2925C25.7426 58.0841 25.7799 57.8695 25.81 57.6476C25.8463 57.3903 25.866 57.1434 25.8836 56.9028C25.9013 56.6622 25.9085 56.4288 25.9075 56.2059C25.9075 56.0944 25.9044 55.985 25.8992 55.8777C25.894 55.7704 25.8878 55.6652 25.8826 55.5621C25.8702 55.3548 25.8505 55.1579 25.8256 54.9693C25.8007 54.7808 25.7696 54.6026 25.7374 54.4339C25.7074 54.2641 25.6742 54.1047 25.6389 53.9547C25.5684 53.6557 25.4875 53.4005 25.4191 53.19C25.2376 53.5838 24.9887 54.0797 24.6361 54.6381C24.5469 54.7777 24.4557 54.9204 24.3572 55.0652C24.2587 55.211 24.1529 55.36 24.0409 55.511C23.8159 55.8131 23.5618 56.1257 23.2756 56.4424C22.6357 57.158 22.1618 57.5153 21.6661 57.8779C21.1725 58.2414 20.653 58.6102 19.9644 59.3832C19.8068 59.5603 19.5558 59.8426 19.2769 60.2103C19.1379 60.3937 18.9896 60.5989 18.8455 60.8218C18.7024 61.0437 18.5614 61.2843 18.4286 61.5406C18.2959 61.7969 18.1725 62.0688 18.0667 62.3532C18.0397 62.424 18.0149 62.4959 17.991 62.5688C17.9682 62.6407 17.9454 62.7136 17.9246 62.7876C17.8832 62.9345 17.8469 63.0845 17.8178 63.2366C17.7577 63.5408 17.7235 63.8533 17.7214 64.17C17.7245 64.4856 17.7608 64.8054 17.8365 65.1252C17.9174 65.494 18.1725 66.4555 18.9274 66.7535C19.504 66.9743 20.2092 66.8441 20.8552 66.3118C21.2151 66.017 21.5593 65.6961 21.8953 65.3492C22.2313 65.0023 22.5538 64.6325 22.8587 64.2429C23.0111 64.0481 23.1594 63.8481 23.3025 63.6439C23.3741 63.5418 23.4446 63.4387 23.5141 63.3345C23.5846 63.2303 23.6541 63.123 23.7225 63.0168C23.9953 62.5886 24.2493 62.1427 24.4785 61.6844V61.6802Z" fill="#FABC40"/>
<path d="M12.4275 78.0157C12.1371 77.9136 11.8156 77.7938 11.4693 77.6459C11.2961 77.5719 11.1167 77.4907 10.9311 77.4011C10.7475 77.3104 10.5588 77.2115 10.3649 77.1021C9.97808 76.8833 9.56743 76.627 9.1464 76.3176C8.72953 76.0062 8.29813 75.6457 7.8574 75.2238C7.60749 74.9769 7.37209 74.7269 7.15017 74.4759C7.03921 74.3498 6.9324 74.2238 6.8287 74.0977C6.77685 74.0342 6.72499 73.9717 6.67626 73.9081C6.62752 73.8446 6.57982 73.781 6.53212 73.7175C6.34338 73.4643 6.16709 73.2122 6.00428 72.9643C5.84147 72.7164 5.69007 72.4726 5.55733 72.233C5.28978 71.7538 5.06475 71.3017 4.88742 70.8923C4.71217 70.4808 4.57633 70.1141 4.47159 69.8099C5.37378 70.5048 6.83492 71.4392 8.72745 71.8882C9.26255 72.0153 9.69083 72.0736 10.0693 72.0965C10.2581 72.108 10.4344 72.1111 10.6044 72.109C10.7755 72.107 10.9415 72.0997 11.1074 72.0913C11.7731 72.057 12.4565 72.0122 13.5848 72.1622C13.7134 72.1788 13.8803 72.2007 14.0763 72.2299C14.2744 72.258 14.5015 72.2945 14.7504 72.3403C15.2471 72.433 15.8278 72.5653 16.4251 72.7622C17.0297 72.956 17.6478 73.2133 18.2212 73.5612C18.5116 73.7331 18.7895 73.9289 19.0477 74.1508C19.1773 74.2623 19.3007 74.3811 19.419 74.5061C19.5403 74.63 19.6554 74.7623 19.7632 74.9019C19.8877 75.0624 20.1127 75.353 20.2786 75.7082C20.4508 76.0614 20.5638 76.4802 20.458 76.9094C20.4186 77.0708 20.3554 77.2271 20.2703 77.3729C20.1863 77.5188 20.0785 77.6563 19.9489 77.7803C19.6896 78.0282 19.3412 78.2261 18.9077 78.3418C17.9454 78.597 16.9094 78.7136 15.8133 78.6709C15.2637 78.6501 14.7089 78.5845 14.1437 78.4761C13.8606 78.422 13.5754 78.3563 13.2882 78.2803C13.1451 78.2417 13.0009 78.2011 12.8558 78.1574C12.7127 78.1126 12.5696 78.0647 12.4264 78.0146L12.4275 78.0157Z" fill="#FABC40"/>
<path d="M28.5487 69.0974C28.6452 68.8401 28.7468 68.5557 28.8464 68.2463C28.8961 68.0911 28.9449 67.9306 28.9915 67.7629C29.0403 67.5952 29.088 67.4191 29.1315 67.2389C29.2207 66.8764 29.2943 66.4909 29.3503 66.0795C29.4105 65.6659 29.4489 65.2284 29.4561 64.7679C29.4655 64.4991 29.4623 64.2398 29.4499 63.9918C29.4437 63.8679 29.4354 63.746 29.424 63.6272C29.4115 63.5085 29.4001 63.3918 29.3887 63.2772C29.3628 63.048 29.3296 62.8292 29.2892 62.6199C29.2487 62.4115 29.2021 62.2136 29.1575 62.0229C29.0652 61.6437 28.9511 61.3083 28.8412 61.0135C28.7344 60.7176 28.6234 60.4666 28.5249 60.2614C28.2325 61.1177 27.6942 62.4355 26.6531 63.8929C26.3575 64.3054 26.0962 64.6221 25.8473 64.8898C25.7229 65.0242 25.6026 65.1461 25.4834 65.2617C25.3641 65.3773 25.2469 65.4878 25.1287 65.5982C24.6548 66.042 24.1601 66.492 23.5234 67.39C23.4508 67.4931 23.3565 67.6264 23.2497 67.7869C23.1439 67.9463 23.0257 68.1327 22.9023 68.3411C22.6565 68.7588 22.391 69.2682 22.1722 69.8381C21.9607 70.4037 21.7947 71.0308 21.7418 71.6788C21.719 72.0007 21.7232 72.3288 21.7636 72.657C21.7833 72.8205 21.8113 72.9851 21.8507 73.1476C21.8912 73.3091 21.942 73.4706 22.0032 73.63C22.0737 73.8133 22.2002 74.1467 22.4149 74.4592C22.6347 74.7686 22.9417 75.0582 23.3575 75.154C23.5141 75.1905 23.6769 75.203 23.8428 75.1915C24.0098 75.179 24.1788 75.1415 24.3468 75.0801C24.6828 74.9571 25.0167 74.7342 25.3216 74.4113C25.9998 73.6935 26.6241 72.8674 27.1633 71.9746C27.4308 71.5288 27.688 71.0611 27.9193 70.5798C28.0354 70.3391 28.1453 70.0954 28.2501 69.8485C28.3019 69.7255 28.3527 69.6005 28.4015 69.4755C28.4523 69.3495 28.501 69.2234 28.5487 69.0963V69.0974Z" fill="#FABC40"/>
<path d="M18.0377 87.8591C17.7183 87.7955 17.3647 87.7195 16.981 87.6163C16.7891 87.5653 16.589 87.507 16.3816 87.4413C16.1752 87.3746 15.9637 87.2986 15.7449 87.2132C15.526 87.1278 15.3 87.033 15.0687 86.9267C14.9526 86.8736 14.8354 86.8184 14.7161 86.759C14.657 86.7288 14.5969 86.6986 14.5367 86.6684C14.4776 86.6361 14.4175 86.6048 14.3573 86.5715C14.1168 86.4402 13.87 86.2954 13.619 86.1371C13.4935 86.0579 13.366 85.9746 13.2384 85.8881C13.1098 85.8016 12.9802 85.712 12.8527 85.6162C12.555 85.3953 12.273 85.1683 12.0054 84.937C11.8716 84.8214 11.741 84.7057 11.6155 84.5891C11.4911 84.4713 11.3708 84.3526 11.2536 84.2338C11.0192 83.9963 10.7994 83.7588 10.5941 83.5234C10.5432 83.464 10.4914 83.4056 10.4427 83.3473C10.3939 83.2879 10.3462 83.2285 10.2996 83.1702C10.2052 83.0525 10.115 82.9358 10.0279 82.8202C9.85364 82.5889 9.69186 82.3639 9.54357 82.1451C9.46891 82.0368 9.39943 81.9285 9.33306 81.8222C9.26669 81.7159 9.20344 81.6128 9.14329 81.5118C8.90271 81.1065 8.70671 80.744 8.55738 80.4398C9.08003 80.7388 9.75927 81.0805 10.5567 81.3742C10.9601 81.519 11.3946 81.6513 11.8551 81.7607C12.3155 81.8691 12.7998 81.9566 13.3152 82.0045C14.4766 82.1139 15.1527 81.9982 15.8454 81.8691C16.5392 81.7357 17.2537 81.5868 18.4597 81.5763C19.0073 81.5732 20.2175 81.5472 21.521 81.7764C21.8497 81.8316 22.1867 81.9024 22.5206 81.9941C22.8556 82.0847 23.1854 82.1983 23.512 82.3347C23.8397 82.4691 24.157 82.6295 24.4567 82.8212C24.6081 82.916 24.7512 83.0223 24.8954 83.1317C25.0385 83.2421 25.1764 83.3608 25.3091 83.49C25.3848 83.564 25.4917 83.6682 25.6068 83.7963C25.7219 83.9244 25.8453 84.0786 25.9593 84.2474C26.1864 84.588 26.3607 85.0068 26.3088 85.4704C26.2362 86.1621 25.7623 86.8267 24.8871 87.2028C24.6444 87.3069 24.3945 87.4028 24.1384 87.4913C23.8822 87.5799 23.6199 87.658 23.3544 87.7268C22.8214 87.8653 22.2645 87.9674 21.6879 88.0289C21.3996 88.0601 21.1062 88.0799 20.8085 88.0903C20.5109 88.0997 20.2123 88.0966 19.9074 88.083C19.6035 88.0695 19.2945 88.0445 18.9834 88.008C18.6723 87.9716 18.354 87.9247 18.0408 87.8622L18.0377 87.8591Z" fill="#FABC40"/>
<path d="M33.7286 76.0947C33.796 75.8145 33.8675 75.5051 33.9318 75.1717C33.964 75.0051 33.9951 74.8311 34.022 74.6519C34.05 74.4717 34.0791 74.2842 34.1019 74.0915C34.1257 73.8987 34.1444 73.6998 34.1589 73.4956C34.1662 73.3935 34.1714 73.2904 34.1766 73.1852C34.1797 73.0799 34.1838 72.9737 34.188 72.8653C34.1942 72.6487 34.1932 72.4268 34.1849 72.1997C34.1807 72.0861 34.1745 71.9715 34.1662 71.8559C34.1579 71.7403 34.1475 71.6236 34.1372 71.5038C34.1133 71.2267 34.078 70.9631 34.0345 70.711C34.0127 70.585 33.9878 70.4631 33.9629 70.3422C33.9391 70.2214 33.9132 70.1027 33.8852 69.9881C33.8302 69.7578 33.7669 69.5391 33.6995 69.3328C33.6653 69.2297 33.6311 69.1286 33.5979 69.0297C33.5637 68.9307 33.5284 68.8349 33.4921 68.7421C33.4195 68.5557 33.3438 68.3817 33.2671 68.2181C33.2277 68.1369 33.1904 68.0577 33.153 67.9796C33.1157 67.9025 33.0784 67.8285 33.041 67.7577C32.8927 67.4723 32.7424 67.2347 32.6169 67.0389C32.5163 67.4983 32.3659 68.0838 32.1202 68.7661C32.002 69.1047 31.8609 69.4661 31.6909 69.8485C31.5218 70.2297 31.3217 70.6329 31.0956 71.0444C30.5813 71.9819 30.1561 72.5028 29.7112 73.032C29.2695 73.5623 28.8101 74.0998 28.2573 75.1249C28.0012 75.5968 27.4671 76.6156 27.1571 77.8625C27.0824 78.173 27.0233 78.4949 26.9849 78.8262C26.9476 79.1564 26.93 79.497 26.9466 79.8356C26.9652 80.1731 27.0129 80.5117 27.098 80.8461C27.1415 81.0128 27.1903 81.1805 27.2556 81.3409C27.3199 81.5024 27.3935 81.6618 27.4786 81.818C27.5273 81.9076 27.5957 82.0337 27.686 82.1743C27.7751 82.3149 27.8851 82.4702 28.0219 82.6118C28.2926 82.8983 28.6514 83.1515 29.0994 83.1858C29.7797 83.2337 30.5035 82.8671 31.0541 82.0993C31.2076 81.8868 31.3549 81.667 31.498 81.443C31.6411 81.219 31.779 80.9888 31.9138 80.7523C32.1824 80.2804 32.4292 79.7898 32.6532 79.2845C32.7652 79.0314 32.872 78.7751 32.9716 78.5168C33.0722 78.2574 33.1707 77.9917 33.2598 77.725C33.3501 77.4584 33.4341 77.1885 33.5118 76.9177C33.5896 76.6458 33.6581 76.3749 33.7265 76.0968L33.7286 76.0947Z" fill="#FABC40"/>
<path d="M25.3465 97.2753C24.6517 97.2524 23.819 97.1795 22.8421 96.968C22.7197 96.942 22.5963 96.9128 22.4719 96.8795C22.3475 96.8472 22.2199 96.8118 22.0913 96.7742C21.8331 96.6992 21.5666 96.6128 21.2928 96.5149C21.1559 96.4659 21.017 96.4138 20.8759 96.3576C20.737 96.3003 20.5949 96.2398 20.4518 96.1763C20.1656 96.0481 19.8721 95.9065 19.5714 95.7492C19.2209 95.5679 18.8963 95.37 18.5811 95.1689C18.2679 94.9668 17.9661 94.7616 17.6861 94.5491C17.4072 94.3355 17.1417 94.1189 16.8928 93.9022C16.7684 93.7938 16.647 93.6855 16.5299 93.5782C16.4127 93.4699 16.3028 93.3605 16.1939 93.2532C15.9782 93.0375 15.776 92.824 15.5893 92.6177C15.496 92.5146 15.4058 92.4125 15.3197 92.3125C15.2346 92.2114 15.1538 92.1114 15.076 92.0146C14.7659 91.626 14.5108 91.2739 14.3086 90.978C14.6062 91.0947 14.9443 91.2176 15.3186 91.3343C15.5053 91.3926 15.7013 91.4499 15.9056 91.5041C16.0072 91.5312 16.112 91.5572 16.2177 91.5833C16.3245 91.6083 16.4345 91.6322 16.5454 91.6541C17.4352 91.8343 18.438 91.95 19.532 91.8916C20.149 91.8604 20.6291 91.7874 21.045 91.6926C21.4598 91.5989 21.8144 91.4791 22.1691 91.3562C22.8784 91.1082 23.6043 90.8426 24.8643 90.6415C25.1536 90.5936 25.614 90.5155 26.175 90.454C26.7371 90.3915 27.3966 90.3488 28.1018 90.3561C28.4533 90.3613 28.8132 90.3821 29.1751 90.4238C29.2653 90.4342 29.3555 90.4467 29.4468 90.4592C29.538 90.4717 29.6293 90.4853 29.7206 90.5009C29.9031 90.5322 30.0835 90.5686 30.2639 90.6134C30.4433 90.6572 30.6217 90.7093 30.797 90.7676C30.8851 90.7968 30.9722 90.8291 31.0583 90.8624C31.1454 90.8947 31.2325 90.9301 31.3186 90.9666C31.6629 91.1145 31.9926 91.2968 32.3027 91.5229C32.4821 91.652 32.8108 91.8791 33.0939 92.1989C33.375 92.5208 33.6238 92.9219 33.6394 93.4115C33.6622 94.147 33.265 94.9231 32.4105 95.4596C31.9356 95.7575 31.4285 96.0252 30.8903 96.2596C30.6217 96.3773 30.3448 96.4857 30.0617 96.5847C29.7786 96.6836 29.4862 96.7753 29.1906 96.8534C28.5985 97.0107 27.9794 97.1284 27.3365 97.2014C27.1757 97.2191 27.0129 97.2357 26.8491 97.2482C26.6863 97.2597 26.5224 97.268 26.3576 97.2743C26.0267 97.2857 25.6908 97.2847 25.3485 97.2722L25.3465 97.2753Z" fill="#FABC40"/>
<path d="M40.0273 82.4347C40.0864 81.8399 40.158 81.1117 40.1476 80.3085C40.1455 80.2075 40.1435 80.1054 40.1424 80.0012C40.1404 79.8971 40.1362 79.7918 40.131 79.6845C40.1207 79.471 40.103 79.2533 40.0792 79.0314C40.0667 78.921 40.0533 78.8085 40.0377 78.6959C40.0232 78.5814 40.0076 78.4657 39.989 78.3501C39.9527 78.1178 39.907 77.8813 39.8531 77.6417C39.7878 77.3667 39.7225 77.0969 39.6457 76.8458C39.57 76.5937 39.4839 76.3583 39.3979 76.1312C39.3128 75.903 39.2216 75.6895 39.1262 75.4884C39.0785 75.3874 39.0297 75.2905 38.98 75.1968C38.9312 75.102 38.8835 75.0082 38.8348 74.9196C38.7373 74.7405 38.6377 74.5738 38.5372 74.4196C38.4874 74.3425 38.4376 74.2675 38.3878 74.1967C38.3391 74.1238 38.2914 74.054 38.2447 73.9873C38.055 73.7196 37.8724 73.4987 37.7148 73.3216C37.692 73.5643 37.6588 73.8414 37.6101 74.1519C37.5862 74.3071 37.5572 74.4696 37.525 74.6405C37.5084 74.7259 37.4908 74.8123 37.4722 74.9019C37.4545 74.9905 37.4359 75.0801 37.4151 75.1717C37.2533 75.9041 37.0024 76.7573 36.6374 77.6813C36.4289 78.2063 36.2309 78.622 36.0359 78.9824C35.8399 79.3439 35.6512 79.6471 35.4541 79.9565C35.0642 80.5763 34.6536 81.2086 34.2139 82.3608C34.1154 82.6222 33.9598 83.04 33.8095 83.5609C33.6591 84.0807 33.5118 84.7078 33.4424 85.3735C33.4061 85.7068 33.3874 86.0527 33.3926 86.4038C33.3936 86.4913 33.3967 86.5798 33.4019 86.6673C33.4071 86.7548 33.4144 86.8423 33.4227 86.9298C33.4403 87.1048 33.4652 87.2799 33.4973 87.4549C33.5295 87.6288 33.5699 87.8028 33.6186 87.9747C33.6435 88.0612 33.6695 88.1466 33.6985 88.231C33.7286 88.3143 33.7607 88.3976 33.7949 88.481C33.9329 88.8112 34.1092 89.13 34.328 89.4279C34.4555 89.5977 34.6899 89.9019 35.0103 90.1582C35.3276 90.4165 35.7435 90.6113 36.2153 90.5697C36.9277 90.5061 37.6236 90.004 38.0871 89.1091C38.3453 88.6133 38.5797 88.0955 38.7902 87.5622C38.896 87.2955 38.9945 87.0246 39.0878 86.7507C39.1811 86.4767 39.2662 86.2006 39.3491 85.9173C39.514 85.3537 39.653 84.7786 39.765 84.1994C39.793 84.0546 39.8189 83.9098 39.8438 83.764C39.8697 83.6171 39.8936 83.4702 39.9164 83.3223C39.961 83.0275 39.9993 82.7327 40.0294 82.4368L40.0273 82.4347Z" fill="#FABC40"/>
<path d="M34.4659 105.918C34.0998 105.967 33.6995 106.003 33.2547 106.026C33.0327 106.037 32.7994 106.044 32.5557 106.044C32.3131 106.044 32.0569 106.039 31.7956 106.022C31.2709 105.988 30.7047 105.924 30.097 105.81C29.7963 105.751 29.4852 105.679 29.1637 105.594C29.0029 105.551 28.8401 105.505 28.6742 105.455C28.5083 105.405 28.3393 105.353 28.1713 105.293C27.3894 105.018 26.6593 104.7 26.006 104.341C25.6783 104.164 25.3631 103.984 25.0686 103.796C24.7751 103.607 24.4972 103.416 24.2348 103.226C24.1041 103.131 23.9766 103.036 23.8532 102.941C23.7298 102.847 23.6147 102.751 23.5006 102.657C23.2745 102.468 23.064 102.284 22.8691 102.107C22.4771 101.755 22.1629 101.419 21.9057 101.14C22.2344 101.216 22.6057 101.294 23.0163 101.357C23.4291 101.417 23.8781 101.466 24.3561 101.492C24.5946 101.505 24.8415 101.512 25.0934 101.512C25.3475 101.51 25.6088 101.5 25.8743 101.482C26.4053 101.445 26.9569 101.375 27.5221 101.259C28.808 100.986 29.4986 100.633 30.2017 100.26C30.377 100.166 30.5533 100.071 30.7389 99.9745C30.9256 99.8776 31.1215 99.7776 31.3362 99.6776C31.7655 99.4765 32.2674 99.2713 32.9114 99.0577C33.4963 98.8661 34.7801 98.4254 36.2412 98.2108C36.6094 98.1545 36.9879 98.1118 37.3716 98.092C37.5634 98.0816 37.7553 98.0775 37.9481 98.0795C38.141 98.0816 38.337 98.0858 38.5309 98.1004C38.9198 98.1285 39.3045 98.1868 39.682 98.2837C40.0626 98.3754 40.4359 98.5067 40.7937 98.6869C40.998 98.7931 41.3775 98.9692 41.7218 99.2515C41.895 99.3911 42.0578 99.5609 42.1936 99.7515C42.3295 99.9432 42.4332 100.164 42.4809 100.417C42.623 101.18 42.3367 102.061 41.5362 102.776C41.0903 103.172 40.607 103.543 40.0854 103.884C39.8241 104.055 39.5545 104.217 39.2745 104.372C39.1345 104.449 38.9924 104.525 38.8483 104.597C38.7052 104.669 38.5589 104.738 38.4117 104.805C37.8196 105.074 37.1932 105.306 36.5316 105.496C35.8731 105.683 35.1856 105.821 34.4659 105.913V105.918Z" fill="#FABC40"/>
<path d="M47.4015 87.8455C47.389 87.533 47.3766 87.1819 47.3507 86.81C47.3372 86.6236 47.3206 86.4319 47.2998 86.235C47.2791 86.0371 47.2521 85.837 47.2241 85.6266C47.1661 85.2078 47.0862 84.7724 46.9742 84.3255C46.9213 84.0984 46.8601 83.8692 46.7896 83.6379C46.7544 83.5223 46.717 83.4056 46.6776 83.289C46.6382 83.1723 46.5957 83.0556 46.5532 82.9358C46.3541 82.3816 46.1208 81.9014 45.8854 81.4649C45.7672 81.2472 45.6406 81.0492 45.5183 80.8575C45.3959 80.6659 45.2715 80.4888 45.146 80.3242C45.0838 80.2419 45.0205 80.1627 44.9572 80.0877C44.895 80.0116 44.8349 79.9356 44.7737 79.8648C44.6524 79.722 44.5321 79.5918 44.4159 79.4731C44.1805 79.2387 43.97 79.0376 43.7854 78.8824C43.7917 79.1366 43.7906 79.4304 43.7803 79.7575C43.772 80.0814 43.7523 80.4419 43.7149 80.8357C43.6963 81.0325 43.6724 81.2378 43.6444 81.4513C43.6185 81.6628 43.5863 81.8816 43.549 82.1087C43.4733 82.5629 43.3748 83.0473 43.2452 83.5608C42.961 84.7141 42.6592 85.4078 42.3388 86.1173C42.259 86.2954 42.1781 86.4746 42.0972 86.6631C42.0173 86.8507 41.9365 87.0475 41.8576 87.2611C41.699 87.6893 41.5424 88.1872 41.3983 88.8216C41.2645 89.405 40.9917 90.6655 41.0363 92.0864C41.0498 92.4385 41.082 92.8 41.1411 93.1625C41.1701 93.3438 41.2064 93.5251 41.2489 93.7063C41.2925 93.8866 41.3454 94.0626 41.4055 94.2376C41.5258 94.5876 41.6782 94.9304 41.8691 95.2523C42.063 95.57 42.2953 95.869 42.569 96.1388C42.7246 96.2971 43.017 96.568 43.3883 96.7763C43.5749 96.8795 43.7792 96.968 44.0011 97.0097C44.2231 97.0513 44.4585 97.0513 44.699 96.9857C45.426 96.7888 46.0648 96.1377 46.4039 95.122C46.5926 94.5585 46.7544 93.9772 46.8902 93.3844C46.9576 93.0886 47.0188 92.7886 47.0727 92.4875C47.0997 92.3364 47.1246 92.1854 47.1484 92.0343C47.1733 91.8812 47.1951 91.7281 47.2169 91.5749C47.3009 90.9603 47.3579 90.3394 47.388 89.7196C47.4191 89.0966 47.4274 88.4674 47.4035 87.8476L47.4015 87.8455Z" fill="#FABC40"/>
<path d="M59.438 104.085C57.1628 103.563 54.9094 102.891 52.7037 102.066C52.4289 101.962 52.1509 101.861 51.8772 101.755L51.0559 101.427C50.919 101.371 50.7811 101.318 50.6452 101.261L50.2377 101.088L49.4226 100.74L48.6117 100.379C48.4768 100.318 48.341 100.258 48.2062 100.196L47.8059 100.005C47.5394 99.8765 47.2729 99.7463 47.0074 99.6151C46.745 99.4775 46.4837 99.338 46.2234 99.1963L45.8335 98.9827L45.4498 98.7577C45.1947 98.6067 44.9407 98.4546 44.6876 98.3004L43.5614 97.5858C43.437 97.5055 43.3136 97.4222 43.1902 97.3409L42.4487 96.8492C42.203 96.6826 41.9613 96.5117 41.7166 96.343L41.3506 96.0888C41.2282 96.0054 41.11 95.9159 40.9886 95.8294L40.2679 95.3064C39.317 94.597 38.3733 93.873 37.4597 93.1136L36.9433 92.6885L35.9281 91.8187L35.7611 91.6708L35.0953 91.077C34.9844 90.978 34.8734 90.8791 34.7645 90.777C34.33 90.3707 33.8904 89.9696 33.4662 89.5519C33.2536 89.3446 33.0369 89.1394 32.8264 88.9289L32.198 88.2945C32.0932 88.1882 31.9874 88.0841 31.8848 87.9768L30.9608 87.0069L30.0555 86.0183L29.1699 85.012L28.5923 84.3297L28.304 83.988C28.2076 83.8744 28.1153 83.7567 28.0209 83.6421L27.4568 82.9473C27.3614 82.8327 27.2722 82.7139 27.1799 82.5962L26.9051 82.243C26.7226 82.0076 26.5349 81.7743 26.3586 81.5347L25.8214 80.818L25.6877 80.6388L25.557 80.4575L25.2957 80.0939C24.5926 79.1283 23.9289 78.1355 23.2725 77.1365L22.5528 76.001L21.8538 74.8509C21.7004 74.5946 21.5531 74.3342 21.4017 74.0758C21.0968 73.5612 20.8117 73.0351 20.5203 72.5132L20.4114 72.3174L19.8856 71.3256C19.8161 71.1933 19.7446 71.0621 19.6782 70.9277L19.2727 70.1266C19.2053 69.9933 19.1369 69.8599 19.0716 69.7255L18.4867 68.5119L18.1123 67.6952L17.9257 67.2868C17.8624 67.1514 17.8054 67.0129 17.7452 66.8754L17.3885 66.0503C17.3284 65.9128 17.2713 65.7742 17.2143 65.6357L16.8742 64.8044C16.8171 64.6658 16.7601 64.5273 16.7072 64.3877L16.3826 63.5491C16.3287 63.4095 16.2727 63.2699 16.2219 63.1293L15.7583 61.8625L15.4659 61.0125C15.2658 60.4468 15.0895 59.8738 14.9039 59.303L14.8354 59.0884L14.7701 58.8727L14.6405 58.4414C14.5544 58.1539 14.4662 57.8674 14.3833 57.5789L14.0193 56.2788L13.6802 54.9714C13.6418 54.8266 13.6086 54.6797 13.5734 54.5339L13.3639 53.6588C13.3286 53.513 13.2934 53.3671 13.2633 53.2203L13.0715 52.34L12.9761 51.8993L12.7147 50.5732C12.6587 50.2784 12.609 49.9815 12.5561 49.6867L12.4379 49.021L12.2626 47.9074C12.2398 47.7584 12.2149 47.6105 12.1931 47.4615L12.1319 47.0146C11.7991 44.6343 11.5709 42.2372 11.4579 39.8329C11.2422 35.0253 11.4558 30.1927 12.1216 25.4194C12.7946 20.6472 13.9166 15.9365 15.4794 11.3737C13.8606 15.9167 12.6784 20.6191 11.9453 25.3934C11.2028 30.1666 10.9114 35.0128 11.0524 39.8485C11.1219 42.2664 11.3065 44.6822 11.5968 47.0855L11.6497 47.5365C11.6684 47.6866 11.6902 47.8366 11.7109 47.9866L11.8665 49.1106L11.9722 49.7836C12.0199 50.0825 12.0645 50.3815 12.1164 50.6805L12.3559 52.0212L12.6204 53.3578C12.6484 53.5067 12.6816 53.6547 12.7137 53.8026L12.9087 54.6902C12.9418 54.8381 12.9719 54.986 13.0082 55.1329L13.3255 56.458L13.6677 57.7768C13.7466 58.0695 13.8306 58.3602 13.9114 58.6529L14.0338 59.0904L14.096 59.3092L14.1614 59.5269C14.3376 60.1072 14.5056 60.6895 14.6975 61.2645L14.9775 62.1292L15.4224 63.4189C15.4721 63.5626 15.5261 63.7033 15.5769 63.846L15.89 64.7002C15.9409 64.8429 15.9969 64.9836 16.0518 65.1252L16.3816 65.9732C16.4365 66.1149 16.4905 66.2566 16.5496 66.3961L16.8949 67.2379C16.953 67.3775 17.0079 67.5191 17.0691 67.6577L17.6104 68.9109L18.1756 70.1537C18.2389 70.2912 18.3063 70.4277 18.3706 70.5652L18.7636 71.3861C18.8279 71.5236 18.8974 71.658 18.9648 71.7944L19.3733 72.607L19.476 72.8101L19.5818 73.0112C19.8659 73.5477 20.1428 74.0873 20.4415 74.6165C20.5887 74.8821 20.7328 75.1488 20.8832 75.4134L21.3385 76.202L21.5666 76.5958L22.2728 77.7657C22.9168 78.7959 23.5701 79.82 24.2638 80.818L24.5221 81.194L24.6517 81.3815L25.3143 82.3087C25.4886 82.5577 25.6742 82.7983 25.8546 83.0431L26.1273 83.4088C26.2186 83.5306 26.3078 83.6536 26.4021 83.7723L26.9611 84.4922C27.0544 84.612 27.1457 84.7338 27.2421 84.8516L27.5283 85.2057L28.1028 85.9141L28.9832 86.9611L29.8854 87.9903L30.8063 89.0029C30.909 89.1154 31.0147 89.2237 31.1195 89.3352L31.7479 89.9977C31.9584 90.2175 32.1741 90.4311 32.3877 90.6488C32.8119 91.0853 33.2526 91.5051 33.6871 91.9312C33.7949 92.0385 33.9069 92.1416 34.0179 92.2458L34.8506 93.025L35.87 93.9418L36.0421 94.0907L36.3875 94.3887C37.3052 95.1898 38.2541 95.9534 39.2143 96.7044L39.9413 97.2587C40.0626 97.3503 40.1829 97.4451 40.3063 97.5337L40.6755 97.8035C40.9223 97.9827 41.167 98.1639 41.4148 98.341L42.1646 98.864C42.2901 98.9504 42.4135 99.039 42.54 99.1244L43.6817 99.8859C43.9389 100.049 44.1951 100.215 44.4512 100.381L44.8338 100.632L45.2196 100.878C45.4768 101.042 45.7319 101.209 45.987 101.379C46.2442 101.543 46.5014 101.709 46.7585 101.876L47.1433 102.128L48.3099 102.865C48.5722 103.025 48.8356 103.181 49.099 103.339L49.4941 103.576C49.6258 103.655 49.7607 103.729 49.8934 103.805L50.695 104.261C50.9636 104.411 51.2353 104.555 51.5059 104.703C53.6712 105.881 55.9122 106.933 58.205 107.901C58.3066 107.944 58.4093 107.974 58.515 107.987C58.6208 108.001 58.7266 108.001 58.8324 107.99C59.0439 107.966 59.2523 107.891 59.4463 107.773C59.8341 107.539 60.1618 107.13 60.3443 106.607C60.5268 106.084 60.532 105.546 60.4003 105.101C60.2686 104.655 59.999 104.304 59.6184 104.147C59.5593 104.121 59.4909 104.099 59.4297 104.084L59.438 104.085Z" fill="#FABC40"/>
</g>
<defs>
<clipPath id="clip0_3894_920">
<rect width="60" height="108" fill="white" transform="matrix(-1 0 0 1 60.5 0)"/>
</clipPath>
</defs>
</svg>
