<svg width="61" height="108" viewBox="0 0 61 108" fill="none" xmlns="http://www.w3.org/2000/svg">
<g clip-path="url(#clip0_3894_961)">
<path d="M45.5362 5.32849C44.9523 3.9836 44.1601 2.82311 43.2755 1.9168C43.1645 1.80325 43.0525 1.69386 42.9395 1.58865C42.8275 1.48239 42.7134 1.38134 42.5963 1.28446C42.364 1.0907 42.1286 0.912562 41.8911 0.752134C41.832 0.711506 41.7729 0.672962 41.7127 0.634418C41.6526 0.596915 41.5924 0.560455 41.5323 0.523994C41.412 0.453156 41.2907 0.385443 41.1704 0.322938C40.9288 0.19793 40.6871 0.0895894 40.4476 0C40.3926 0.254184 40.3512 0.51566 40.3232 0.784428C40.3086 0.918812 40.2983 1.05528 40.29 1.19279C40.2858 1.26154 40.2827 1.33134 40.2806 1.40009C40.2775 1.46989 40.2755 1.54073 40.2734 1.61157C40.2672 1.89492 40.2744 2.18348 40.2952 2.47621C40.3066 2.62205 40.318 2.77102 40.3325 2.91999C40.347 3.06896 40.3657 3.22001 40.3864 3.37106C40.5565 4.58052 40.9153 5.84623 41.4649 7.11298C42.1929 8.79122 43.1542 10.2236 44.2358 11.3185C44.7211 11.8112 45.2489 11.9654 45.6689 11.8206C46.093 11.6747 46.4083 11.2268 46.4684 10.5153C46.5991 8.94019 46.3098 7.11298 45.5351 5.32849H45.5362Z" fill="#FABC40"/>
<path d="M52.594 13.9707C52.678 13.7738 52.7672 13.554 52.8543 13.3071C52.9393 13.0613 53.0223 12.7873 53.097 12.4852C53.2484 11.8789 53.3521 11.157 53.3604 10.2944C53.3604 10.0455 53.3521 9.8017 53.3365 9.56523C53.321 9.32876 53.3013 9.09645 53.2691 8.87456C53.2069 8.42974 53.127 8.01304 53.0316 7.63385C52.9342 7.2557 52.8273 6.91297 52.7226 6.61191C52.6168 6.31188 52.5079 6.05562 52.4167 5.84519C52.3918 6.04208 52.3576 6.26396 52.3109 6.50252C52.2653 6.74108 52.201 6.99943 52.1222 7.26716C52.0434 7.53488 51.9469 7.81407 51.8308 8.09638C51.7136 8.37869 51.5715 8.66725 51.4066 8.95165C51.0323 9.59648 50.7295 9.89546 50.408 10.1986C50.0865 10.5007 49.7526 10.8049 49.3088 11.4351C49.1086 11.7216 48.6576 12.3488 48.3029 13.153C48.2158 13.354 48.1308 13.5665 48.0561 13.7884C47.9825 14.0103 47.9192 14.2416 47.8736 14.4791C47.8508 14.5979 47.8321 14.7187 47.8176 14.8416C47.802 14.9646 47.7917 15.0885 47.7865 15.2146C47.7761 15.4656 47.7875 15.7219 47.8269 15.9823C47.8487 16.1323 47.885 16.4042 47.9804 16.6813C48.0758 16.9584 48.2303 17.2407 48.4782 17.4178C48.8546 17.6824 49.3565 17.7074 49.8501 17.3876C50.3966 17.0324 50.9224 16.5657 51.3849 15.9959C51.6172 15.7104 51.837 15.3979 52.0413 15.0604C52.144 14.8906 52.2404 14.7156 52.3317 14.5343C52.4229 14.3531 52.5111 14.1645 52.593 13.9707H52.594Z" fill="#FABC40"/>
<path d="M41.1196 17.2647C40.9526 17.1657 40.7691 17.0532 40.5741 16.9241C40.3771 16.7959 40.1676 16.6501 39.9519 16.4824C39.5236 16.1459 39.0549 15.7261 38.5934 15.1812C38.4576 15.0239 38.3321 14.8677 38.2149 14.7114C38.0977 14.5552 37.993 14.3999 37.8903 14.2478C37.6871 13.9447 37.5212 13.6468 37.377 13.3686C37.2318 13.0905 37.1147 12.83 37.0213 12.5936C36.9259 12.3581 36.8492 12.1498 36.7932 11.9758C36.9322 12.0706 37.0918 12.1748 37.2733 12.2831C37.4558 12.3904 37.6518 12.505 37.8727 12.6165C38.0926 12.7279 38.3321 12.8384 38.5914 12.9425C38.8506 13.0457 39.1254 13.1446 39.421 13.229C40.0898 13.4228 40.5109 13.4467 40.9391 13.4665C41.3685 13.4863 41.8092 13.5009 42.5299 13.6968C42.8617 13.7853 43.5731 13.9864 44.3167 14.4072C44.5033 14.5124 44.6889 14.6322 44.8694 14.7666C45.0509 14.902 45.2271 15.0521 45.3951 15.2187C45.4781 15.3021 45.5611 15.3896 45.6378 15.4813C45.7145 15.574 45.7871 15.6698 45.8566 15.7709C45.9956 15.973 46.1179 16.1917 46.2196 16.4292C46.2776 16.5657 46.3782 16.8147 46.4321 17.0959C46.4861 17.3783 46.4933 17.6929 46.3523 17.9627C46.1428 18.3689 45.7094 18.6158 45.1266 18.5794C44.4784 18.5388 43.8127 18.4044 43.1345 18.1846C42.7964 18.0741 42.4583 17.9418 42.1234 17.7887C41.9564 17.7116 41.7874 17.6293 41.6194 17.5429C41.4514 17.4553 41.2845 17.3626 41.1196 17.2647Z" fill="#FABC40"/>
<path d="M54.8028 21.8108C54.9117 21.615 55.0289 21.3942 55.1471 21.1462C55.2062 21.0223 55.2664 20.891 55.3245 20.7524C55.3815 20.6139 55.4385 20.468 55.4935 20.3139C55.6034 20.0055 55.7081 19.6659 55.7984 19.2909C55.8844 18.9159 55.956 18.5065 56.0068 18.0575C56.0628 17.5376 56.0742 17.0387 56.0628 16.5667C56.0452 16.0959 56.0006 15.6542 55.9425 15.2489C55.817 14.4395 55.6356 13.777 55.481 13.3228C55.4333 13.5259 55.3753 13.7541 55.2996 13.9978C55.2228 14.2437 55.1295 14.5051 55.0185 14.777C54.9065 15.0489 54.7779 15.3302 54.6224 15.6136C54.4658 15.898 54.2874 16.1834 54.0832 16.4647C53.8519 16.7824 53.6476 17.0116 53.4547 17.197C53.2608 17.3824 53.0783 17.5251 52.8937 17.6668C52.5225 17.9502 52.1367 18.2335 51.6006 18.845C51.3538 19.1242 50.8124 19.7315 50.352 20.5316C50.1177 20.9327 49.903 21.3827 49.7557 21.8671C49.679 22.1098 49.6189 22.3619 49.5815 22.6224C49.5442 22.8818 49.5317 23.1495 49.54 23.4245C49.5463 23.5828 49.5566 23.8683 49.6292 24.1652C49.6469 24.2391 49.6697 24.3141 49.6956 24.3881C49.7205 24.4621 49.7506 24.535 49.7869 24.6058C49.8584 24.7465 49.9517 24.8756 50.0751 24.9798C50.4464 25.2923 50.9753 25.3694 51.5311 25.0871C52.1481 24.7735 52.7485 24.3433 53.3064 23.7954C53.5823 23.5224 53.8478 23.2203 54.0987 22.889C54.3497 22.5578 54.5882 22.1973 54.8018 21.8098L54.8028 21.8108Z" fill="#FABC40"/>
<path d="M42.3101 24.087C42.1431 23.9683 41.9606 23.8349 41.7687 23.6818C41.6723 23.6058 41.5738 23.5245 41.4732 23.438C41.3705 23.3526 41.2668 23.2609 41.1611 23.1641C40.9505 22.9703 40.7348 22.7526 40.5191 22.5078C40.2993 22.264 40.0805 21.9932 39.8658 21.689C39.6149 21.3379 39.4013 20.9931 39.226 20.6587C39.0445 20.3253 38.8973 20.0045 38.7791 19.7034C38.5322 19.1034 38.4005 18.5794 38.3145 18.2106C38.4503 18.321 38.609 18.444 38.7884 18.5721C38.9657 18.7013 39.1638 18.8367 39.3836 18.9732C39.6035 19.1096 39.8472 19.245 40.1075 19.3773C40.3677 19.5097 40.6498 19.6367 40.9526 19.7524C41.2959 19.8836 41.579 19.9659 41.831 20.0232C42.0819 20.0805 42.3038 20.1118 42.5299 20.143C42.981 20.2045 43.4466 20.2607 44.1881 20.5337C44.5251 20.6587 45.2583 20.9347 45.9997 21.4442C46.3658 21.6994 46.7329 22.0129 47.0523 22.3911C47.2089 22.5807 47.353 22.787 47.4785 23.0099C47.604 23.2328 47.7139 23.4714 47.7906 23.7287C47.8362 23.8766 47.9171 24.1433 47.9451 24.4412C47.9524 24.5152 47.9555 24.5912 47.9545 24.6683C47.9524 24.7454 47.9451 24.8225 47.9317 24.8986C47.9047 25.0506 47.8528 25.1996 47.7657 25.3319C47.5023 25.7319 47.017 25.9434 46.4041 25.8465C45.7239 25.7392 45.027 25.534 44.3405 25.2382C43.9941 25.0902 43.6499 24.9204 43.3108 24.7288C43.1417 24.6329 42.9737 24.5308 42.8068 24.4246C42.6409 24.3173 42.4718 24.2058 42.308 24.0881L42.3101 24.087Z" fill="#FABC40"/>
<path d="M56.2909 30.1968C56.5657 29.8114 56.88 29.3291 57.1859 28.7113C57.3373 28.4019 57.4804 28.0592 57.6152 27.6779C57.6816 27.4873 57.749 27.2862 57.807 27.0768C57.8651 26.8664 57.9201 26.6455 57.9698 26.4153C58.0269 26.1476 58.0777 25.884 58.1119 25.6257C58.1472 25.3673 58.1721 25.1142 58.1907 24.8683C58.2301 24.3756 58.2249 23.911 58.2063 23.4828C58.1959 23.2682 58.1835 23.063 58.1627 22.8693C58.142 22.6744 58.1181 22.4911 58.0933 22.3182C58.0414 21.9734 57.9875 21.6723 57.9294 21.4275C57.8589 21.6348 57.7697 21.8661 57.6629 22.114C57.5561 22.3619 57.4306 22.6255 57.2844 22.8974C57.1392 23.1693 56.9671 23.4495 56.7721 23.7287C56.5772 24.0089 56.3583 24.2881 56.1126 24.559C55.5526 25.1725 55.143 25.4309 54.722 25.6882C54.5104 25.8163 54.2957 25.9445 54.0541 26.1132C53.8135 26.282 53.5439 26.4914 53.2245 26.782C53.0783 26.9143 52.847 27.1247 52.5805 27.3998C52.4468 27.5373 52.3057 27.6904 52.1606 27.8592C52.0143 28.0279 51.865 28.2102 51.7198 28.4061C51.4305 28.7978 51.1588 29.2426 50.9431 29.7301C50.8363 29.9739 50.7471 30.2291 50.6818 30.4948C50.6123 30.7604 50.5646 31.0365 50.548 31.3219C50.5335 31.6511 50.465 32.5084 50.9462 32.9918C51.3029 33.3554 51.8515 33.4918 52.4727 33.2585C53.1633 32.9981 53.8426 32.6157 54.4897 32.1053C54.6514 31.9782 54.8111 31.8428 54.9688 31.699C55.0476 31.6271 55.1253 31.5542 55.2031 31.4782C55.2799 31.4032 55.3556 31.325 55.4302 31.2459C55.7299 30.9281 56.0182 30.5791 56.2909 30.1979V30.1968Z" fill="#FABC40"/>
<path d="M42.8254 31.2532C42.5009 30.9729 42.1089 30.6271 41.7117 30.1833C41.5105 29.9614 41.3031 29.7155 41.1019 29.4416C41.0003 29.3041 40.9018 29.1603 40.8002 29.0082C40.6985 28.8572 40.599 28.6978 40.5015 28.5311C40.3874 28.3373 40.2889 28.1457 40.1935 27.9581C40.0981 27.7706 40.0131 27.5852 39.9374 27.405C39.7881 27.0425 39.6626 26.6976 39.5693 26.3757C39.5215 26.2143 39.4842 26.0591 39.4458 25.9111C39.4085 25.7632 39.3784 25.6215 39.3525 25.4882C39.2996 25.2215 39.2706 24.985 39.2447 24.7913C39.3784 24.9184 39.5298 25.06 39.703 25.2111C39.8772 25.3621 40.0732 25.5205 40.292 25.6819C40.5129 25.8434 40.7483 26.009 41.0107 26.1705C41.272 26.333 41.5572 26.4914 41.8673 26.6414C42.5641 26.982 43.0183 27.0945 43.4902 27.2029C43.7256 27.257 43.9661 27.3112 44.241 27.3956C44.5168 27.48 44.8258 27.5956 45.2002 27.7748C45.3713 27.8571 45.644 27.9873 45.9655 28.1738C46.1262 28.2665 46.2994 28.3727 46.4778 28.4946C46.6541 28.6155 46.8355 28.7519 47.017 28.903C47.3779 29.2051 47.7377 29.5666 48.0271 29.9927C48.1733 30.2052 48.305 30.4333 48.4149 30.6771C48.5217 30.9208 48.6067 31.1802 48.6638 31.4542C48.7343 31.7678 48.8888 32.5991 48.4647 33.1127C48.1391 33.4991 47.6008 33.6669 46.9652 33.5023C46.261 33.3189 45.5434 33.0335 44.8466 32.6564C44.6723 32.5616 44.4992 32.4616 44.3281 32.3564C44.242 32.3032 44.157 32.2491 44.073 32.1938C43.9869 32.1386 43.9019 32.0813 43.8168 32.023C43.4777 31.7896 43.1459 31.5334 42.8265 31.2573L42.8254 31.2532Z" fill="#FABC40"/>
<path d="M56.9474 39.0776C57.1133 38.8922 57.2979 38.6828 57.4835 38.4432C57.6691 38.2036 57.862 37.9349 58.0559 37.6296C58.1524 37.4775 58.2498 37.3161 58.3452 37.1442C58.4417 36.9733 58.5371 36.7921 58.6263 36.6014C58.8067 36.2191 58.984 35.7951 59.1406 35.3253C59.2298 35.0534 59.3065 34.7836 59.3739 34.518C59.4403 34.2534 59.4984 33.9929 59.5419 33.7377C59.5865 33.4835 59.6218 33.2345 59.6498 32.9939C59.6643 32.8731 59.6757 32.7553 59.6871 32.6387C59.6975 32.522 59.7037 32.4084 59.7099 32.2959C59.7327 31.848 59.7338 31.4355 59.7172 31.0698C59.6985 30.7042 59.6685 30.3864 59.6384 30.125C59.2433 30.9583 58.5412 32.1699 57.3746 33.1939C56.714 33.7731 56.2588 33.9971 55.7828 34.22C55.3058 34.4409 54.8132 34.6607 54.078 35.1951C53.7451 35.4389 53.0026 35.9681 52.3099 36.7181C51.9614 37.0931 51.6161 37.5244 51.3413 38.0078C51.2729 38.1286 51.2075 38.2526 51.1484 38.3797C51.0883 38.5068 51.0302 38.638 50.9794 38.7714C50.8767 39.0391 50.7979 39.3204 50.7492 39.6152C50.7357 39.6996 50.716 39.8183 50.7015 39.9579C50.6859 40.0975 50.6725 40.2558 50.6776 40.4225C50.6859 40.7548 50.7596 41.1122 50.9877 41.3903C51.1609 41.5997 51.3828 41.7539 51.6524 41.8351C51.921 41.9164 52.2331 41.9237 52.5754 41.8362C52.7651 41.7882 52.9559 41.732 53.1447 41.6674C53.3334 41.6028 53.5221 41.5299 53.7109 41.4486C54.0883 41.2861 54.4637 41.0913 54.8339 40.8621C55.2031 40.633 55.5723 40.3704 55.9249 40.0725C56.2764 39.7746 56.6186 39.4433 56.9474 39.0766V39.0776Z" fill="#FABC40"/>
<path d="M42.5838 38.7026C42.4262 38.5401 42.2592 38.3599 42.0788 38.1567C41.8973 37.9536 41.7096 37.7286 41.5219 37.4786C41.4276 37.3536 41.3342 37.2223 41.2409 37.0838C41.1486 36.9452 41.0563 36.8004 40.9609 36.6483C40.7732 36.3441 40.5949 36.0108 40.4258 35.6462C40.3252 35.4347 40.2371 35.2263 40.1593 35.0232C40.0815 34.819 40.0152 34.62 39.9509 34.4252C39.8886 34.2304 39.8358 34.0419 39.7912 33.8585C39.7684 33.7669 39.7487 33.6762 39.73 33.5877C39.7113 33.4991 39.6916 33.4116 39.675 33.3262C39.6076 32.9845 39.5703 32.6699 39.5444 32.3886C39.5164 32.1084 39.506 31.8626 39.5039 31.6594C40.0058 32.2386 40.8406 33.0908 42.0757 33.8408C42.7746 34.2659 43.2496 34.4305 43.7349 34.5919C44.2202 34.7555 44.7221 34.9149 45.4812 35.3649C45.8307 35.5701 46.5763 36.0222 47.2814 36.7254C47.632 37.0765 47.9628 37.49 48.2293 37.9619C48.2956 38.0797 48.3579 38.2015 48.4149 38.3265C48.4709 38.4516 48.5196 38.5807 48.5632 38.713C48.6503 38.9776 48.7125 39.2547 48.7436 39.5454C48.753 39.6287 48.7654 39.7454 48.7716 39.8829C48.7758 40.0194 48.7716 40.1756 48.7519 40.3361C48.7115 40.658 48.6036 40.9986 48.3506 41.2403C48.1619 41.4216 47.9151 41.5413 47.6382 41.5851C47.3613 41.6289 47.0502 41.5966 46.7225 41.4768C46.541 41.4101 46.3596 41.3361 46.1791 41.257C45.9976 41.1767 45.8162 41.0903 45.6357 40.9976C45.2759 40.8121 44.9202 40.6017 44.5718 40.3694C44.2233 40.136 43.8863 39.8798 43.5524 39.6016C43.2185 39.3235 42.8939 39.0235 42.5849 38.7037L42.5838 38.7026Z" fill="#FABC40"/>
<path d="M56.6611 48.4054C57.0511 48.0574 57.5167 47.6147 57.9989 47.023C58.2353 46.7261 58.4759 46.3927 58.7134 46.0146C58.8316 45.825 58.9519 45.625 59.066 45.4135C59.179 45.201 59.2899 44.977 59.3988 44.7405C59.5243 44.4665 59.6373 44.1936 59.739 43.9248C59.8396 43.6561 59.9225 43.3894 59.9993 43.129C60.1496 42.6081 60.2658 42.1081 60.3363 41.6434C60.4099 41.1788 60.4545 40.7486 60.4815 40.3652C60.5012 39.9829 60.5032 39.6475 60.4981 39.3714C59.993 40.1965 59.1105 41.383 57.7676 42.3195C57.0044 42.8498 56.4952 43.031 55.9684 43.2102C55.705 43.2988 55.4396 43.3863 55.1316 43.5102C54.8236 43.6342 54.4772 43.7967 54.0572 44.0332C53.8654 44.1415 53.5605 44.3113 53.2017 44.5426C53.0223 44.6582 52.8315 44.7895 52.6303 44.9343C52.4291 45.0791 52.2217 45.2395 52.0164 45.4145C51.8111 45.5895 51.6058 45.7791 51.4108 45.9833C51.3123 46.0854 51.2179 46.1917 51.1246 46.301C51.0302 46.4104 50.939 46.524 50.8508 46.6407C50.6756 46.875 50.5169 47.1251 50.3811 47.3907C50.3126 47.524 50.2535 47.6616 50.1944 47.8022C50.1363 47.9428 50.0855 48.0887 50.042 48.2387C49.9922 48.4106 49.902 48.722 49.8771 49.0669C49.8667 49.2398 49.8636 49.42 49.8957 49.5981C49.9268 49.7752 49.987 49.9492 50.0907 50.1065C50.4028 50.5795 50.9804 50.8586 51.7188 50.7597C52.5391 50.6493 53.3832 50.4055 54.2221 50.0169C54.6411 49.8232 55.0517 49.5909 55.4603 49.3231C55.6646 49.1887 55.8668 49.046 56.0669 48.8929C56.2671 48.7397 56.4683 48.5783 56.6591 48.4054H56.6611Z" fill="#FABC40"/>
<path d="M41.5147 46.3365C41.215 45.9666 40.8676 45.5135 40.5274 44.9572C40.3532 44.6791 40.1821 44.3738 40.0203 44.0415C39.9395 43.8748 39.8627 43.7019 39.786 43.5206C39.7082 43.3394 39.6335 43.1508 39.563 42.9539C39.4821 42.7258 39.4127 42.5029 39.3536 42.2862C39.2934 42.0685 39.2384 41.856 39.1949 41.6497C39.1067 41.2372 39.0601 40.8496 39.0228 40.4913C38.9896 40.1329 38.9813 39.8058 38.9885 39.5152C38.9885 39.2245 39.0041 38.9703 39.0228 38.762C39.1399 38.9245 39.2768 39.1068 39.4376 39.3027C39.5174 39.4006 39.6055 39.5027 39.6947 39.6068C39.7839 39.711 39.8804 39.8183 39.982 39.9267C40.1852 40.1444 40.4134 40.3715 40.6685 40.5996C40.796 40.7142 40.9298 40.8288 41.0708 40.9434C41.2108 41.058 41.355 41.1726 41.5084 41.2851C42.2001 41.7997 42.6823 42.0216 43.1801 42.2424C43.429 42.3529 43.6841 42.4654 43.9682 42.6164C44.2513 42.7685 44.5676 42.9602 44.942 43.2342C45.1131 43.3602 45.3858 43.5602 45.7 43.83C45.8566 43.9655 46.0256 44.1176 46.1936 44.2863C46.3606 44.4551 46.5307 44.6405 46.6955 44.8416C46.8604 45.0426 47.0212 45.2603 47.1695 45.4916C47.2431 45.6072 47.3157 45.727 47.381 45.85C47.4463 45.9729 47.5065 46.0989 47.5625 46.2292C47.6745 46.4886 47.7668 46.7605 47.8321 47.0448C47.8642 47.1865 47.8922 47.3313 47.9068 47.4782C47.9223 47.6251 47.9296 47.7741 47.9285 47.9262C47.9275 48.1001 47.9254 48.4158 47.8497 48.745C47.8134 48.9096 47.7512 49.0752 47.6662 49.2294C47.5801 49.3825 47.4671 49.5221 47.3188 49.6315C46.8718 49.9617 46.2403 50.0086 45.5725 49.6804C44.832 49.3169 44.1072 48.8439 43.4279 48.2814C43.0878 48.0001 42.7508 47.6949 42.4314 47.3699C42.2717 47.2074 42.1151 47.0396 41.9627 46.8667C41.8102 46.6938 41.663 46.5167 41.5136 46.3344L41.5147 46.3365Z" fill="#FABC40"/>
<path d="M55.2716 58.0966C56.18 57.4695 57.4576 56.484 58.5972 54.6079C58.9343 54.0662 59.1956 53.5213 59.4206 52.9963C59.6477 52.4713 59.8116 51.9598 59.9474 51.4826C60.0148 51.2441 60.0739 51.0139 60.1237 50.793C60.1714 50.5722 60.2108 50.3617 60.244 50.1628C60.3114 49.7648 60.3539 49.4148 60.383 49.1262C60.0625 49.5273 59.6384 50.0128 59.1054 50.5003C58.9737 50.6222 58.8306 50.7441 58.6812 50.8639C58.5319 50.9847 58.3763 51.1035 58.2135 51.2201C57.8879 51.4535 57.5353 51.6785 57.1548 51.8827C56.9401 51.9983 56.741 52.0931 56.5574 52.1712C56.3729 52.2494 56.2038 52.3129 56.0431 52.365C55.7216 52.4702 55.4375 52.5327 55.1482 52.5931C54.8599 52.6536 54.5664 52.7119 54.2283 52.8046C53.8903 52.8973 53.5097 53.0244 53.0358 53.2182C52.8201 53.3067 52.4768 53.4474 52.0703 53.6432C51.8671 53.7411 51.6483 53.8536 51.4212 53.9797C51.1951 54.1068 50.9576 54.2474 50.7181 54.4037C50.4796 54.5599 50.2411 54.7308 50.0098 54.9193C49.7775 55.1068 49.5587 55.3121 49.343 55.5329C49.1304 55.7538 48.9324 55.9934 48.7581 56.2517C48.671 56.3809 48.5891 56.5153 48.5144 56.6549C48.4367 56.7934 48.3651 56.9382 48.3019 57.0872C48.2282 57.2591 48.0965 57.5695 48.0302 57.9247C47.998 58.1029 47.9742 58.2894 47.9866 58.4779C47.998 58.6654 48.0416 58.854 48.1318 59.03C48.4056 59.5613 48.9811 59.9249 49.7734 59.9176C50.6527 59.9093 51.5726 59.7634 52.5048 59.4665C52.9705 59.3176 53.4319 59.129 53.8955 58.9009C54.1267 58.7873 54.358 58.6633 54.5882 58.529C54.7033 58.4623 54.8184 58.3925 54.9325 58.3206C55.0455 58.2477 55.1585 58.1727 55.2705 58.0956L55.2716 58.0966Z" fill="#FABC40"/>
<path d="M39.5195 54.0391C38.974 53.2026 38.2626 52.0066 37.8447 50.3274C37.7306 49.8429 37.6446 49.3794 37.6021 48.9491C37.5626 48.5189 37.5398 48.1137 37.5492 47.7449C37.5523 47.5605 37.5626 47.3845 37.5761 47.2167C37.5865 47.049 37.601 46.8907 37.6186 46.7427C37.6539 46.4459 37.7006 46.1896 37.7452 45.9781C37.9536 46.3375 38.2398 46.7865 38.6277 47.2824C38.7251 47.4063 38.8257 47.5324 38.9336 47.6616C39.0414 47.7897 39.1544 47.9209 39.2758 48.0532C39.5174 48.3179 39.7881 48.5877 40.0888 48.8575C40.2599 49.0106 40.4154 49.1429 40.5627 49.2606C40.71 49.3783 40.8489 49.4804 40.9827 49.5721C41.2492 49.7565 41.496 49.8992 41.7459 50.043C41.9958 50.1867 42.2509 50.3326 42.5361 50.5232C42.8203 50.7138 43.1365 50.9514 43.4985 51.2795C43.6644 51.4295 43.9288 51.6702 44.2285 51.9869C44.3778 52.1452 44.5375 52.3233 44.6972 52.5181C44.858 52.714 45.0156 52.9265 45.166 53.1546C45.3163 53.3828 45.4605 53.6265 45.5901 53.8849C45.7176 54.1422 45.8369 54.4151 45.9219 54.6964C46.009 54.9787 46.0744 55.2714 46.1096 55.5725C46.1273 55.7236 46.1376 55.8756 46.1387 56.0309C46.1376 56.185 46.1283 56.3403 46.1086 56.4965C46.0868 56.6768 46.0474 57.0028 45.9292 57.333C45.8722 57.4987 45.7871 57.6622 45.6793 57.8102C45.5704 57.957 45.4345 58.0873 45.2655 58.181C44.7553 58.4644 44.0833 58.431 43.4176 58.005C42.6782 57.5331 41.9699 56.9507 41.3176 56.284C40.991 55.9507 40.6705 55.5933 40.3719 55.2183C40.2215 55.0308 40.0763 54.8381 39.9353 54.6412C39.8648 54.5433 39.7953 54.4433 39.7269 54.3422C39.6574 54.2412 39.589 54.1391 39.5215 54.0359L39.5195 54.0391Z" fill="#FABC40"/>
<path d="M52.6272 68.0233C52.8906 67.8921 53.1716 67.7358 53.4775 67.5525C53.7824 67.3681 54.108 67.1545 54.4482 66.9014C54.7862 66.6472 55.1326 66.3524 55.4904 66.0086C55.6677 65.8367 55.8512 65.6534 56.0296 65.4555C56.208 65.2565 56.3863 65.045 56.5668 64.819C56.7731 64.5564 56.9702 64.2939 57.1465 64.0293C57.3217 63.7647 57.4835 63.5012 57.6339 63.2397C57.7085 63.1095 57.7801 62.9793 57.8496 62.8511C57.8838 62.7865 57.917 62.7219 57.9501 62.6594C57.9823 62.5959 58.0134 62.5313 58.0435 62.4678C58.1648 62.2136 58.2747 61.9656 58.3753 61.724C58.4749 61.4833 58.5651 61.25 58.6449 61.025C58.7217 60.7999 58.7891 60.5843 58.8492 60.3812C58.9674 59.9738 59.0577 59.6134 59.1199 59.3144C58.7362 59.6947 58.227 60.1478 57.6069 60.5905C57.4524 60.701 57.2875 60.8104 57.1154 60.9166C56.9432 61.0239 56.7649 61.1281 56.5782 61.2302C56.2059 61.4333 55.8067 61.6219 55.3804 61.7865C54.4077 62.1563 53.799 62.2167 53.1758 62.2698C52.5505 62.3198 51.9148 62.3646 50.8695 62.6459C50.631 62.7105 50.2525 62.8115 49.8014 62.9615C49.5753 63.0365 49.3326 63.1251 49.0765 63.2261C48.8193 63.3272 48.5518 63.4418 48.2822 63.572C48.0125 63.7022 47.7408 63.8491 47.4754 64.0137C47.409 64.0543 47.3437 64.097 47.2773 64.1408C47.2109 64.1835 47.1446 64.2283 47.0792 64.2731C46.9486 64.3637 46.82 64.4596 46.6945 64.5596C46.4446 64.7606 46.2081 64.9825 45.9945 65.2284C45.7747 65.4721 45.5766 65.7378 45.4086 66.0315C45.2199 66.3732 44.6931 67.24 44.9938 68.0244C45.2116 68.6109 45.7705 69.0682 46.6084 69.1713C47.072 69.2276 47.5552 69.2515 48.0436 69.2359C48.5321 69.2203 49.0329 69.1682 49.5411 69.0755C49.7951 69.0297 50.0513 68.9734 50.3085 68.9078C50.4371 68.8744 50.5667 68.839 50.6963 68.8015C50.8249 68.763 50.9524 68.7213 51.0821 68.6776C51.5964 68.5015 52.1139 68.2838 52.6314 68.0223L52.6272 68.0233Z" fill="#FABC40"/>
<path d="M36.5215 61.6802C36.4074 61.4489 36.2747 61.1885 36.1471 60.9052C36.0186 60.6218 35.89 60.3124 35.7707 59.979C35.6494 59.6447 35.5312 59.2811 35.4337 58.8946C35.3839 58.7008 35.3424 58.5008 35.2999 58.2925C35.2574 58.0841 35.2201 57.8695 35.19 57.6476C35.1537 57.3903 35.134 57.1434 35.1164 56.9028C35.0987 56.6622 35.0915 56.4288 35.0925 56.2059C35.0925 56.0944 35.0956 55.985 35.1008 55.8777C35.106 55.7704 35.1122 55.6652 35.1174 55.5621C35.1298 55.3548 35.1495 55.1579 35.1744 54.9693C35.1993 54.7808 35.2304 54.6026 35.2626 54.4339C35.2926 54.2641 35.3258 54.1047 35.3611 53.9547C35.4316 53.6557 35.5125 53.4005 35.5809 53.19C35.7624 53.5838 36.0113 54.0797 36.3639 54.6381C36.4531 54.7777 36.5443 54.9204 36.6428 55.0652C36.7413 55.211 36.8471 55.36 36.9591 55.511C37.1841 55.8131 37.4382 56.1257 37.7244 56.4424C38.3643 57.158 38.8382 57.5153 39.3339 57.8779C39.8275 58.2414 40.347 58.6102 41.0356 59.3832C41.1932 59.5603 41.4442 59.8426 41.7231 60.2103C41.8621 60.3937 42.0104 60.5989 42.1545 60.8218C42.2976 61.0437 42.4386 61.2843 42.5714 61.5406C42.7041 61.7969 42.8275 62.0688 42.9333 62.3532C42.9603 62.424 42.9851 62.4959 43.009 62.5688C43.0318 62.6407 43.0546 62.7136 43.0754 62.7876C43.1168 62.9345 43.1531 63.0845 43.1822 63.2366C43.2423 63.5408 43.2765 63.8533 43.2786 64.17C43.2755 64.4856 43.2392 64.8054 43.1635 65.1252C43.0826 65.494 42.8275 66.4555 42.0726 66.7535C41.496 66.9743 40.7908 66.8441 40.1448 66.3118C39.7849 66.017 39.4407 65.6961 39.1047 65.3492C38.7687 65.0023 38.4462 64.6325 38.1413 64.2429C37.9889 64.0481 37.8406 63.8481 37.6975 63.6439C37.6259 63.5418 37.5554 63.4387 37.4859 63.3345C37.4154 63.2303 37.3459 63.123 37.2775 63.0168C37.0047 62.5886 36.7507 62.1427 36.5215 61.6844V61.6802Z" fill="#FABC40"/>
<path d="M48.5725 78.0157C48.8629 77.9136 49.1844 77.7938 49.5307 77.6459C49.7039 77.5719 49.8833 77.4907 50.0689 77.4011C50.2525 77.3104 50.4412 77.2115 50.6351 77.1021C51.0219 76.8833 51.4326 76.627 51.8536 76.3176C52.2705 76.0062 52.7019 75.6457 53.1426 75.2238C53.3925 74.9769 53.6279 74.7269 53.8498 74.4759C53.9608 74.3498 54.0676 74.2238 54.1713 74.0977C54.2232 74.0342 54.275 73.9717 54.3237 73.9081C54.3725 73.8446 54.4202 73.781 54.4679 73.7175C54.6566 73.4643 54.8329 73.2122 54.9957 72.9643C55.1585 72.7164 55.3099 72.4726 55.4427 72.233C55.7102 71.7538 55.9352 71.3017 56.1126 70.8923C56.2878 70.4808 56.4237 70.1141 56.5284 69.8099C55.6262 70.5048 54.1651 71.4392 52.2725 71.8882C51.7375 72.0153 51.3092 72.0736 50.9307 72.0965C50.7419 72.108 50.5656 72.1111 50.3956 72.109C50.2245 72.107 50.0585 72.0997 49.8926 72.0913C49.2269 72.057 48.5435 72.0122 47.4152 72.1622C47.2866 72.1788 47.1197 72.2007 46.9237 72.2299C46.7256 72.258 46.4985 72.2945 46.2496 72.3403C45.7529 72.433 45.1722 72.5653 44.5749 72.7622C43.9703 72.956 43.3522 73.2133 42.7788 73.5612C42.4884 73.7331 42.2105 73.9289 41.9523 74.1508C41.8227 74.2623 41.6993 74.3811 41.581 74.5061C41.4597 74.63 41.3446 74.7623 41.2368 74.9019C41.1123 75.0624 40.8873 75.353 40.7214 75.7082C40.5492 76.0614 40.4362 76.4802 40.542 76.9094C40.5814 77.0708 40.6446 77.2271 40.7297 77.3729C40.8137 77.5188 40.9215 77.6563 41.0511 77.7803C41.3104 78.0282 41.6588 78.2261 42.0923 78.3418C43.0546 78.597 44.0906 78.7136 45.1867 78.6709C45.7363 78.6501 46.2911 78.5845 46.8563 78.4761C47.1394 78.422 47.4246 78.3563 47.7118 78.2803C47.8549 78.2417 47.9991 78.2011 48.1442 78.1574C48.2873 78.1126 48.4304 78.0647 48.5736 78.0146L48.5725 78.0157Z" fill="#FABC40"/>
<path d="M32.4513 69.0974C32.3548 68.8401 32.2532 68.5557 32.1536 68.2463C32.1039 68.0911 32.0551 67.9306 32.0085 67.7629C31.9597 67.5952 31.912 67.4191 31.8685 67.2389C31.7793 66.8764 31.7057 66.4909 31.6497 66.0795C31.5895 65.6659 31.5511 65.2284 31.5439 64.7679C31.5345 64.4991 31.5377 64.2398 31.5501 63.9918C31.5563 63.8679 31.5646 63.746 31.576 63.6272C31.5885 63.5085 31.5999 63.3918 31.6113 63.2772C31.6372 63.048 31.6704 62.8292 31.7108 62.6199C31.7513 62.4115 31.7979 62.2136 31.8425 62.0229C31.9348 61.6437 32.0489 61.3083 32.1588 61.0135C32.2656 60.7176 32.3766 60.4666 32.4751 60.2614C32.7675 61.1177 33.3058 62.4355 34.3469 63.8929C34.6425 64.3054 34.9038 64.6221 35.1527 64.8898C35.2771 65.0242 35.3974 65.1461 35.5166 65.2617C35.6359 65.3773 35.7531 65.4878 35.8713 65.5982C36.3452 66.042 36.8399 66.492 37.4766 67.39C37.5492 67.4931 37.6435 67.6264 37.7503 67.7869C37.8561 67.9463 37.9743 68.1327 38.0977 68.3411C38.3435 68.7588 38.609 69.2682 38.8278 69.8381C39.0393 70.4037 39.2053 71.0308 39.2582 71.6788C39.281 72.0007 39.2768 72.3288 39.2364 72.657C39.2167 72.8205 39.1887 72.9851 39.1493 73.1476C39.1088 73.3091 39.058 73.4706 38.9968 73.63C38.9263 73.8133 38.7998 74.1467 38.5851 74.4592C38.3653 74.7686 38.0583 75.0582 37.6425 75.154C37.4859 75.1905 37.3231 75.203 37.1572 75.1915C36.9902 75.179 36.8212 75.1415 36.6532 75.0801C36.3172 74.9571 35.9833 74.7342 35.6784 74.4113C35.0002 73.6935 34.3759 72.8674 33.8367 71.9746C33.5692 71.5288 33.312 71.0611 33.0807 70.5798C32.9646 70.3391 32.8547 70.0954 32.7499 69.8485C32.6981 69.7255 32.6473 69.6005 32.5985 69.4755C32.5477 69.3495 32.499 69.2234 32.4513 69.0963V69.0974Z" fill="#FABC40"/>
<path d="M42.9623 87.8591C43.2817 87.7955 43.6353 87.7195 44.019 87.6163C44.2109 87.5653 44.411 87.507 44.6184 87.4413C44.8248 87.3746 45.0363 87.2986 45.2551 87.2132C45.474 87.1278 45.7 87.033 45.9313 86.9267C46.0474 86.8736 46.1646 86.8184 46.2839 86.759C46.343 86.7288 46.4031 86.6986 46.4633 86.6684C46.5224 86.6361 46.5825 86.6048 46.6427 86.5715C46.8832 86.4402 47.13 86.2954 47.381 86.1371C47.5065 86.0579 47.634 85.9746 47.7616 85.8881C47.8902 85.8016 48.0198 85.712 48.1473 85.6162C48.445 85.3953 48.727 85.1683 48.9946 84.937C49.1284 84.8214 49.259 84.7057 49.3845 84.5891C49.5089 84.4713 49.6292 84.3526 49.7464 84.2338C49.9808 83.9963 50.2006 83.7588 50.4059 83.5234C50.4568 83.464 50.5086 83.4056 50.5573 83.3473C50.6061 83.2879 50.6538 83.2285 50.7004 83.1702C50.7948 83.0525 50.885 82.9358 50.9721 82.8202C51.1464 82.5889 51.3081 82.3639 51.4564 82.1451C51.5311 82.0368 51.6006 81.9285 51.6669 81.8222C51.7333 81.7159 51.7966 81.6128 51.8567 81.5118C52.0973 81.1065 52.2933 80.744 52.4426 80.4398C51.92 80.7388 51.2407 81.0805 50.4433 81.3742C50.0399 81.519 49.6054 81.6513 49.1449 81.7607C48.6845 81.8691 48.2002 81.9566 47.6848 82.0045C46.5234 82.1139 45.8473 81.9982 45.1546 81.8691C44.4608 81.7357 43.7463 81.5868 42.5403 81.5763C41.9927 81.5732 40.7825 81.5472 39.479 81.7764C39.1503 81.8316 38.8133 81.9024 38.4794 81.9941C38.1444 82.0847 37.8146 82.1983 37.488 82.3347C37.1603 82.4691 36.843 82.6295 36.5433 82.8212C36.3919 82.916 36.2488 83.0223 36.1046 83.1317C35.9615 83.2421 35.8236 83.3608 35.6909 83.49C35.6152 83.564 35.5083 83.6682 35.3932 83.7963C35.2781 83.9244 35.1547 84.0786 35.0407 84.2474C34.8136 84.588 34.6393 85.0068 34.6912 85.4704C34.7638 86.1621 35.2377 86.8267 36.1129 87.2028C36.3556 87.3069 36.6055 87.4028 36.8616 87.4913C37.1178 87.5799 37.3801 87.658 37.6456 87.7268C38.1786 87.8653 38.7355 87.9674 39.3121 88.0289C39.6004 88.0601 39.8938 88.0799 40.1915 88.0903C40.4891 88.0997 40.7877 88.0966 41.0926 88.083C41.3965 88.0695 41.7055 88.0445 42.0166 88.008C42.3277 87.9716 42.646 87.9247 42.9592 87.8622L42.9623 87.8591Z" fill="#FABC40"/>
<path d="M27.2714 76.0947C27.204 75.8145 27.1325 75.5051 27.0682 75.1717C27.036 75.0051 27.0049 74.8311 26.978 74.6519C26.95 74.4717 26.9209 74.2842 26.8981 74.0915C26.8743 73.8987 26.8556 73.6998 26.8411 73.4956C26.8338 73.3935 26.8286 73.2904 26.8234 73.1852C26.8203 73.0799 26.8162 72.9737 26.812 72.8653C26.8058 72.6487 26.8068 72.4268 26.8151 72.1997C26.8193 72.0861 26.8255 71.9715 26.8338 71.8559C26.8421 71.7403 26.8525 71.6236 26.8628 71.5038C26.8867 71.2267 26.922 70.9631 26.9655 70.711C26.9873 70.585 27.0122 70.4631 27.0371 70.3422C27.0609 70.2214 27.0868 70.1027 27.1148 69.9881C27.1698 69.7578 27.2331 69.5391 27.3005 69.3328C27.3347 69.2297 27.3689 69.1286 27.4021 69.0297C27.4363 68.9307 27.4716 68.8349 27.5079 68.7421C27.5805 68.5557 27.6562 68.3817 27.7329 68.2181C27.7723 68.1369 27.8096 68.0577 27.847 67.9796C27.8843 67.9025 27.9216 67.8285 27.959 67.7577C28.1073 67.4723 28.2576 67.2347 28.3831 67.0389C28.4837 67.4983 28.6341 68.0838 28.8798 68.7661C28.998 69.1047 29.1391 69.4661 29.3091 69.8485C29.4782 70.2297 29.6783 70.6329 29.9044 71.0444C30.4187 71.9819 30.8439 72.5028 31.2888 73.032C31.7305 73.5623 32.1899 74.0998 32.7427 75.1249C32.9988 75.5968 33.5329 76.6156 33.8429 77.8625C33.9176 78.173 33.9767 78.4949 34.0151 78.8262C34.0524 79.1564 34.07 79.497 34.0534 79.8356C34.0348 80.1731 33.9871 80.5117 33.902 80.8461C33.8585 81.0128 33.8097 81.1805 33.7444 81.3409C33.6801 81.5024 33.6065 81.6618 33.5214 81.818C33.4727 81.9076 33.4043 82.0337 33.314 82.1743C33.2249 82.3149 33.1149 82.4702 32.9781 82.6118C32.7074 82.8983 32.3486 83.1515 31.9006 83.1858C31.2203 83.2337 30.4965 82.8671 29.9459 82.0993C29.7924 81.8868 29.6451 81.667 29.502 81.443C29.3589 81.219 29.221 80.9888 29.0862 80.7523C28.8176 80.2804 28.5708 79.7898 28.3468 79.2845C28.2348 79.0314 28.128 78.7751 28.0284 78.5168C27.9278 78.2574 27.8293 77.9917 27.7402 77.725C27.6499 77.4584 27.5659 77.1885 27.4882 76.9177C27.4104 76.6458 27.3419 76.3749 27.2735 76.0968L27.2714 76.0947Z" fill="#FABC40"/>
<path d="M35.6535 97.2753C36.3483 97.2524 37.181 97.1795 38.1579 96.968C38.2803 96.942 38.4037 96.9128 38.5281 96.8795C38.6525 96.8472 38.7801 96.8118 38.9087 96.7742C39.1669 96.6992 39.4334 96.6128 39.7072 96.5149C39.8441 96.4659 39.983 96.4138 40.1241 96.3576C40.263 96.3003 40.4051 96.2398 40.5482 96.1763C40.8344 96.0481 41.1279 95.9065 41.4286 95.7492C41.7791 95.5679 42.1037 95.37 42.4189 95.1689C42.7321 94.9668 43.0339 94.7616 43.3139 94.5491C43.5928 94.3355 43.8583 94.1189 44.1072 93.9022C44.2316 93.7938 44.353 93.6855 44.4701 93.5782C44.5873 93.4699 44.6972 93.3605 44.8061 93.2532C45.0218 93.0375 45.224 92.824 45.4107 92.6177C45.504 92.5146 45.5942 92.4125 45.6803 92.3125C45.7654 92.2114 45.8462 92.1114 45.924 92.0146C46.2341 91.626 46.4892 91.2739 46.6914 90.978C46.3938 91.0947 46.0557 91.2176 45.6814 91.3343C45.4947 91.3926 45.2987 91.4499 45.0944 91.5041C44.9928 91.5312 44.888 91.5572 44.7823 91.5833C44.6755 91.6083 44.5655 91.6322 44.4546 91.6541C43.5648 91.8343 42.562 91.95 41.468 91.8916C40.851 91.8604 40.3709 91.7874 39.955 91.6926C39.5402 91.5989 39.1856 91.4791 38.8309 91.3562C38.1216 91.1082 37.3957 90.8426 36.1357 90.6415C35.8464 90.5936 35.386 90.5155 34.825 90.454C34.2629 90.3915 33.6034 90.3488 32.8982 90.3561C32.5467 90.3613 32.1868 90.3821 31.8249 90.4238C31.7347 90.4342 31.6445 90.4467 31.5532 90.4592C31.462 90.4717 31.3707 90.4853 31.2794 90.5009C31.0969 90.5322 30.9165 90.5686 30.7361 90.6134C30.5567 90.6572 30.3783 90.7093 30.203 90.7676C30.1149 90.7968 30.0278 90.8291 29.9417 90.8624C29.8546 90.8947 29.7675 90.9301 29.6814 90.9666C29.3371 91.1145 29.0074 91.2968 28.6973 91.5229C28.5179 91.652 28.1892 91.8791 27.9061 92.1989C27.625 92.5208 27.3762 92.9219 27.3606 93.4115C27.3378 94.147 27.735 94.9231 28.5895 95.4596C29.0644 95.7575 29.5715 96.0252 30.1097 96.2596C30.3783 96.3773 30.6552 96.4857 30.9383 96.5847C31.2214 96.6836 31.5138 96.7753 31.8094 96.8534C32.4015 97.0107 33.0206 97.1284 33.6635 97.2014C33.8243 97.2191 33.9871 97.2357 34.1509 97.2482C34.3137 97.2597 34.4776 97.268 34.6424 97.2743C34.9733 97.2857 35.3092 97.2847 35.6515 97.2722L35.6535 97.2753Z" fill="#FABC40"/>
<path d="M20.9727 82.4347C20.9136 81.8399 20.842 81.1117 20.8524 80.3085C20.8545 80.2075 20.8565 80.1054 20.8576 80.0012C20.8596 79.8971 20.8638 79.7918 20.869 79.6845C20.8793 79.471 20.897 79.2533 20.9208 79.0314C20.9333 78.921 20.9467 78.8085 20.9623 78.6959C20.9768 78.5814 20.9924 78.4657 21.011 78.3501C21.0473 78.1178 21.093 77.8813 21.1469 77.6417C21.2122 77.3667 21.2775 77.0969 21.3543 76.8458C21.43 76.5937 21.5161 76.3583 21.6021 76.1312C21.6872 75.903 21.7784 75.6895 21.8738 75.4884C21.9215 75.3874 21.9703 75.2905 22.02 75.1968C22.0688 75.102 22.1165 75.0082 22.1652 74.9196C22.2627 74.7405 22.3623 74.5738 22.4628 74.4196C22.5126 74.3425 22.5624 74.2675 22.6122 74.1967C22.6609 74.1238 22.7086 74.054 22.7553 73.9873C22.945 73.7196 23.1276 73.4987 23.2852 73.3216C23.308 73.5643 23.3412 73.8414 23.3899 74.1519C23.4138 74.3071 23.4428 74.4696 23.475 74.6405C23.4916 74.7259 23.5092 74.8123 23.5278 74.9019C23.5455 74.9905 23.5641 75.0801 23.5849 75.1717C23.7467 75.9041 23.9976 76.7573 24.3626 77.6813C24.5711 78.2063 24.7691 78.622 24.9641 78.9824C25.1601 79.3439 25.3488 79.6471 25.5459 79.9565C25.9358 80.5763 26.3464 81.2086 26.7861 82.3608C26.8846 82.6222 27.0402 83.04 27.1905 83.5609C27.3409 84.0807 27.4882 84.7078 27.5576 85.3735C27.5939 85.7068 27.6126 86.0527 27.6074 86.4038C27.6064 86.4913 27.6033 86.5798 27.5981 86.6673C27.5929 86.7548 27.5856 86.8423 27.5773 86.9298C27.5597 87.1048 27.5348 87.2799 27.5027 87.4549C27.4705 87.6288 27.4301 87.8028 27.3814 87.9747C27.3565 88.0612 27.3305 88.1466 27.3015 88.231C27.2714 88.3143 27.2393 88.3976 27.2051 88.481C27.0671 88.8112 26.8908 89.13 26.672 89.4279C26.5445 89.5977 26.3101 89.9019 25.9897 90.1582C25.6724 90.4165 25.2565 90.6113 24.7847 90.5697C24.0723 90.5061 23.3764 90.004 22.9129 89.1091C22.6547 88.6133 22.4203 88.0955 22.2098 87.5622C22.104 87.2955 22.0055 87.0246 21.9122 86.7507C21.8189 86.4767 21.7338 86.2006 21.6509 85.9173C21.486 85.3537 21.347 84.7786 21.235 84.1994C21.207 84.0546 21.1811 83.9098 21.1562 83.764C21.1303 83.6171 21.1064 83.4702 21.0836 83.3223C21.039 83.0275 21.0007 82.7327 20.9706 82.4368L20.9727 82.4347Z" fill="#FABC40"/>
<path d="M26.5341 105.918C26.9002 105.967 27.3005 106.003 27.7453 106.026C27.9673 106.037 28.2006 106.044 28.4443 106.044C28.6869 106.044 28.9431 106.039 29.2044 106.022C29.7291 105.988 30.2953 105.924 30.903 105.81C31.2037 105.751 31.5148 105.679 31.8363 105.594C31.9971 105.551 32.1599 105.505 32.3258 105.455C32.4917 105.405 32.6607 105.353 32.8287 105.293C33.6106 105.018 34.3407 104.7 34.994 104.341C35.3217 104.164 35.6369 103.984 35.9314 103.796C36.2249 103.607 36.5028 103.416 36.7652 103.226C36.8959 103.131 37.0234 103.036 37.1468 102.941C37.2702 102.847 37.3853 102.751 37.4994 102.657C37.7255 102.468 37.936 102.284 38.1309 102.107C38.5229 101.755 38.8371 101.419 39.0943 101.14C38.7656 101.216 38.3943 101.294 37.9837 101.357C37.5709 101.417 37.1219 101.466 36.6439 101.492C36.4054 101.505 36.1585 101.512 35.9066 101.512C35.6525 101.51 35.3912 101.5 35.1257 101.482C34.5947 101.445 34.0431 101.375 33.4779 101.259C32.192 100.986 31.5014 100.633 30.7983 100.26C30.623 100.166 30.4467 100.071 30.2611 99.9745C30.0744 99.8776 29.8785 99.7776 29.6638 99.6776C29.2345 99.4765 28.7326 99.2713 28.0886 99.0577C27.5037 98.8661 26.2199 98.4254 24.7588 98.2108C24.3906 98.1545 24.0121 98.1118 23.6284 98.092C23.4366 98.0816 23.2447 98.0775 23.0519 98.0795C22.859 98.0816 22.663 98.0858 22.4691 98.1004C22.0802 98.1285 21.6955 98.1868 21.318 98.2837C20.9374 98.3754 20.5641 98.5067 20.2063 98.6869C20.002 98.7931 19.6225 98.9692 19.2782 99.2515C19.105 99.3911 18.9422 99.5609 18.8064 99.7515C18.6705 99.9432 18.5668 100.164 18.5191 100.417C18.377 101.18 18.6633 102.061 19.4638 102.776C19.9097 103.172 20.393 103.543 20.9146 103.884C21.1759 104.055 21.4455 104.217 21.7255 104.372C21.8655 104.449 22.0076 104.525 22.1517 104.597C22.2948 104.669 22.4411 104.738 22.5883 104.805C23.1804 105.074 23.8068 105.306 24.4684 105.496C25.1269 105.683 25.8144 105.821 26.5341 105.913V105.918Z" fill="#FABC40"/>
<path d="M13.5985 87.8455C13.611 87.533 13.6234 87.1819 13.6493 86.81C13.6628 86.6236 13.6794 86.4319 13.7002 86.235C13.7209 86.0371 13.7479 85.837 13.7759 85.6266C13.8339 85.2078 13.9138 84.7724 14.0258 84.3255C14.0787 84.0984 14.1399 83.8692 14.2104 83.6379C14.2456 83.5223 14.283 83.4056 14.3224 83.289C14.3618 83.1723 14.4043 83.0556 14.4468 82.9358C14.6459 82.3816 14.8792 81.9014 15.1146 81.4649C15.2328 81.2472 15.3594 81.0492 15.4817 80.8575C15.6041 80.6659 15.7285 80.4888 15.854 80.3242C15.9162 80.2419 15.9795 80.1627 16.0428 80.0877C16.105 80.0116 16.1651 79.9356 16.2263 79.8648C16.3476 79.722 16.4679 79.5918 16.5841 79.4731C16.8195 79.2387 17.03 79.0376 17.2146 78.8824C17.2083 79.1366 17.2094 79.4304 17.2197 79.7575C17.228 80.0814 17.2477 80.4419 17.2851 80.8357C17.3037 81.0325 17.3276 81.2378 17.3556 81.4513C17.3815 81.6628 17.4137 81.8816 17.451 82.1087C17.5267 82.5629 17.6252 83.0473 17.7548 83.5608C18.039 84.7141 18.3408 85.4078 18.6612 86.1173C18.741 86.2954 18.8219 86.4746 18.9028 86.6631C18.9827 86.8507 19.0635 87.0475 19.1424 87.2611C19.301 87.6893 19.4576 88.1872 19.6017 88.8216C19.7355 89.405 20.0083 90.6655 19.9637 92.0864C19.9502 92.4385 19.918 92.8 19.8589 93.1625C19.8299 93.3438 19.7936 93.5251 19.7511 93.7063C19.7075 93.8866 19.6546 94.0626 19.5945 94.2376C19.4742 94.5876 19.3218 94.9304 19.1309 95.2523C18.937 95.57 18.7047 95.869 18.431 96.1388C18.2754 96.2971 17.983 96.568 17.6117 96.7763C17.4251 96.8795 17.2208 96.968 16.9989 97.0097C16.7769 97.0513 16.5415 97.0513 16.301 96.9857C15.574 96.7888 14.9352 96.1377 14.5961 95.122C14.4074 94.5585 14.2456 93.9772 14.1098 93.3844C14.0424 93.0886 13.9812 92.7886 13.9273 92.4875C13.9003 92.3364 13.8754 92.1854 13.8516 92.0343C13.8267 91.8812 13.8049 91.7281 13.7831 91.5749C13.6991 90.9603 13.6421 90.3394 13.612 89.7196C13.5809 89.0966 13.5726 88.4674 13.5965 87.8476L13.5985 87.8455Z" fill="#FABC40"/>
<path d="M1.56203 104.085C3.83722 103.563 6.09062 102.891 8.29633 102.066C8.57114 101.962 8.84905 101.861 9.12282 101.755L9.94413 101.427C10.081 101.371 10.2189 101.318 10.3548 101.261L10.7623 101.088L11.5774 100.74L12.3883 100.379C12.5232 100.318 12.659 100.258 12.7938 100.196L13.1941 100.005C13.4606 99.8765 13.7271 99.7463 13.9926 99.6151C14.255 99.4775 14.5163 99.338 14.7766 99.1963L15.1665 98.9827L15.5502 98.7577C15.8053 98.6067 16.0593 98.4546 16.3124 98.3004L17.4386 97.5858C17.563 97.5055 17.6864 97.4222 17.8098 97.3409L18.5513 96.8492C18.797 96.6826 19.0387 96.5117 19.2834 96.343L19.6494 96.0888C19.7718 96.0054 19.89 95.9159 20.0114 95.8294L20.7321 95.3064C21.683 94.597 22.6267 93.873 23.5403 93.1136L24.0567 92.6885L25.0719 91.8187L25.2389 91.6708L25.9047 91.077C26.0156 90.978 26.1266 90.8791 26.2355 90.777C26.67 90.3707 27.1096 89.9696 27.5338 89.5519C27.7464 89.3446 27.9631 89.1394 28.1736 88.9289L28.802 88.2945C28.9068 88.1882 29.0126 88.0841 29.1152 87.9768L30.0392 87.0069L30.9445 86.0183L31.8301 85.012L32.4077 84.3297L32.696 83.988C32.7924 83.8744 32.8847 83.7567 32.9791 83.6421L33.5432 82.9473C33.6386 82.8327 33.7278 82.7139 33.8201 82.5962L34.0949 82.243C34.2774 82.0076 34.4651 81.7743 34.6414 81.5347L35.1786 80.818L35.3123 80.6388L35.443 80.4575L35.7043 80.0939C36.4074 79.1283 37.0711 78.1355 37.7275 77.1365L38.4472 76.001L39.1462 74.8509C39.2996 74.5946 39.4469 74.3342 39.5983 74.0758C39.9032 73.5612 40.1883 73.0351 40.4797 72.5132L40.5886 72.3174L41.1144 71.3256C41.1839 71.1933 41.2554 71.0621 41.3218 70.9277L41.7273 70.1266C41.7947 69.9933 41.8631 69.8599 41.9284 69.7255L42.5133 68.5119L42.8877 67.6952L43.0743 67.2868C43.1376 67.1514 43.1946 67.0129 43.2548 66.8754L43.6115 66.0503C43.6716 65.9128 43.7287 65.7742 43.7857 65.6357L44.1258 64.8044C44.1829 64.6658 44.2399 64.5273 44.2928 64.3877L44.6174 63.5491C44.6713 63.4095 44.7273 63.2699 44.7781 63.1293L45.2417 61.8625L45.5341 61.0125C45.7342 60.4468 45.9105 59.8738 46.0961 59.303L46.1646 59.0884L46.2299 58.8727L46.3595 58.4414C46.4456 58.1539 46.5338 57.8674 46.6167 57.5789L46.9807 56.2788L47.3198 54.9714C47.3582 54.8266 47.3914 54.6797 47.4266 54.5339L47.6361 53.6588C47.6714 53.513 47.7066 53.3671 47.7367 53.2203L47.9285 52.34L48.0239 51.8993L48.2853 50.5732C48.3413 50.2784 48.391 49.9815 48.4439 49.6867L48.5621 49.021L48.7374 47.9074C48.7602 47.7584 48.7851 47.6105 48.8069 47.4615L48.8681 47.0146C49.2009 44.6343 49.4291 42.2372 49.5421 39.8329C49.7578 35.0253 49.5442 30.1927 48.8784 25.4194C48.2054 20.6472 47.0834 15.9365 45.5206 11.3737C47.1394 15.9167 48.3216 20.6191 49.0547 25.3934C49.7972 30.1666 50.0886 35.0128 49.9476 39.8485C49.8781 42.2664 49.6935 44.6822 49.4032 47.0855L49.3503 47.5365C49.3316 47.6866 49.3098 47.8366 49.2891 47.9866L49.1335 49.1106L49.0278 49.7836C48.9801 50.0825 48.9355 50.3815 48.8836 50.6805L48.6441 52.0212L48.3796 53.3578C48.3516 53.5067 48.3184 53.6547 48.2863 53.8026L48.0913 54.6902C48.0582 54.8381 48.0281 54.986 47.9918 55.1329L47.6745 56.458L47.3323 57.7768C47.2534 58.0695 47.1694 58.3602 47.0886 58.6529L46.9662 59.0904L46.904 59.3092L46.8386 59.5269C46.6624 60.1072 46.4944 60.6895 46.3025 61.2645L46.0225 62.1292L45.5776 63.4189C45.5279 63.5626 45.4739 63.7033 45.4231 63.846L45.11 64.7002C45.0591 64.8429 45.0031 64.9836 44.9482 65.1252L44.6184 65.9732C44.5635 66.1149 44.5095 66.2566 44.4504 66.3961L44.1051 67.2379C44.047 67.3775 43.9921 67.5191 43.9309 67.6577L43.3896 68.9109L42.8244 70.1537C42.7611 70.2912 42.6937 70.4277 42.6294 70.5652L42.2364 71.3861C42.1721 71.5236 42.1026 71.658 42.0352 71.7944L41.6267 72.607L41.524 72.8101L41.4182 73.0112C41.1341 73.5477 40.8572 74.0873 40.5585 74.6165C40.4113 74.8821 40.2672 75.1488 40.1168 75.4134L39.6615 76.202L39.4334 76.5958L38.7272 77.7657C38.0832 78.7959 37.4299 79.82 36.7362 80.818L36.4779 81.194L36.3483 81.3815L35.6857 82.3087C35.5114 82.5577 35.3258 82.7983 35.1454 83.0431L34.8727 83.4088C34.7814 83.5306 34.6922 83.6536 34.5979 83.7723L34.0389 84.4922C33.9456 84.612 33.8543 84.7338 33.7579 84.8516L33.4717 85.2057L32.8972 85.9141L32.0168 86.9611L31.1146 87.9903L30.1937 89.0029C30.091 89.1154 29.9853 89.2237 29.8805 89.3352L29.2521 89.9977C29.0416 90.2175 28.8259 90.4311 28.6123 90.6488C28.1881 91.0853 27.7474 91.5051 27.3129 91.9312C27.2051 92.0385 27.0931 92.1416 26.9821 92.2458L26.1494 93.025L25.13 93.9418L24.9579 94.0907L24.6125 94.3887C23.6948 95.1898 22.7459 95.9534 21.7857 96.7044L21.0587 97.2587C20.9374 97.3503 20.8171 97.4451 20.6937 97.5337L20.3245 97.8035C20.0777 97.9827 19.833 98.1639 19.5852 98.341L18.8354 98.864C18.7099 98.9504 18.5865 99.039 18.46 99.1244L17.3183 99.8859C17.0611 100.049 16.8049 100.215 16.5488 100.381L16.1662 100.632L15.7804 100.878C15.5232 101.042 15.2681 101.209 15.013 101.379C14.7558 101.543 14.4986 101.709 14.2415 101.876L13.8567 102.128L12.6901 102.865C12.4278 103.025 12.1644 103.181 11.901 103.339L11.5059 103.576C11.3742 103.655 11.2393 103.729 11.1066 103.805L10.305 104.261C10.0364 104.411 9.76473 104.555 9.49407 104.703C7.32881 105.881 5.08784 106.933 2.79502 107.901C2.6934 107.944 2.59074 107.974 2.48496 107.987C2.37919 108.001 2.27341 108.001 2.16764 107.99C1.95609 107.966 1.74765 107.891 1.55373 107.773C1.16589 107.539 0.838203 107.13 0.655689 106.607C0.473175 106.084 0.467991 105.546 0.599689 105.101C0.731388 104.655 1.00101 104.304 1.38159 104.147C1.4407 104.121 1.50914 104.099 1.57032 104.084L1.56203 104.085Z" fill="#FABC40"/>
</g>
<defs>
<clipPath id="clip0_3894_961">
<rect width="60" height="108" fill="white" transform="translate(0.5)"/>
</clipPath>
</defs>
</svg>
